G04*
G04 #@! TF.GenerationSoftware,Altium Limited,Altium NEXUS,2.0.14 (187)*
G04*
G04 Layer_Color=16711935*
%FSLAX44Y44*%
%MOMM*%
G71*
G01*
G75*
%ADD56C,0.2000*%
%ADD57C,0.1500*%
%ADD65C,0.1000*%
D56*
X1017010Y292000D02*
Y564500D01*
X559010Y292000D02*
Y564500D01*
X101010Y292000D02*
Y564500D01*
D57*
X1500000Y0D02*
Y850000D01*
D65*
X0Y0D02*
X1500000D01*
X0Y850000D02*
X1500000D01*
X0Y0D02*
Y850000D01*
X1375000Y100000D02*
Y120000D01*
X1357000D01*
X1375000Y100000D02*
X1357000D01*
X1357000Y120000D02*
Y735000D01*
X1357000Y755000D02*
X1017000D01*
Y100000D02*
Y755000D01*
X1357000Y100000D02*
X1017000D01*
X1375000Y755000D02*
X1357000D01*
X1375000Y735000D02*
X1357000D01*
X1375000D02*
Y738000D01*
Y755000D01*
X917000Y100000D02*
Y120000D01*
X899000D01*
X917000Y100000D02*
X899000D01*
X899000Y120000D02*
Y735000D01*
X899000Y755000D02*
X559000D01*
Y100000D02*
Y755000D01*
X899000Y100000D02*
X559000D01*
X917000Y755000D02*
X899000D01*
X917000Y735000D02*
X899000D01*
X917000D02*
Y738000D01*
Y755000D01*
X459000Y100000D02*
Y120000D01*
X441000D01*
X459000Y100000D02*
X441000D01*
X441000Y120000D02*
Y735000D01*
X441000Y755000D02*
X101000D01*
Y100000D02*
Y755000D01*
X441000Y100000D02*
X101000D01*
X459000Y755000D02*
X441000D01*
X459000Y735000D02*
X441000D01*
X459000D02*
Y738000D01*
Y755000D01*
M02*
