G04*
G04 #@! TF.GenerationSoftware,Altium Limited,Altium NEXUS,2.0.14 (187)*
G04*
G04 Layer_Color=8388736*
%FSLAX44Y44*%
%MOMM*%
G71*
G01*
G75*
%ADD123C,1.6000*%
D123*
X1009000Y176000D02*
Y679000D01*
Y92000D02*
Y140000D01*
Y715000D02*
Y763000D01*
X1289000D02*
X1009000D01*
X1365000D02*
X1325000D01*
X1289000Y92000D02*
X1009000D01*
X1349000D02*
X1325000D01*
X1383000Y727000D02*
Y763000D01*
X1383000Y92000D02*
Y128000D01*
Y727000D02*
X1365000D01*
X1383000Y763000D02*
X1349000D01*
X1383000Y128000D02*
X1365000D01*
X1383000Y92000D02*
X1349000D01*
X1365000Y128000D02*
Y727000D01*
X551000Y176000D02*
Y679000D01*
Y92000D02*
Y140000D01*
Y715000D02*
Y763000D01*
X831000D02*
X551000D01*
X907000D02*
X867000D01*
X831000Y92000D02*
X551000D01*
X891000D02*
X867000D01*
X925000Y727000D02*
Y763000D01*
X925000Y92000D02*
Y128000D01*
Y727000D02*
X907000D01*
X925000Y763000D02*
X891000D01*
X925000Y128000D02*
X907000D01*
X925000Y92000D02*
X891000D01*
X907000Y128000D02*
Y727000D01*
X93000Y176000D02*
Y679000D01*
Y92000D02*
Y140000D01*
Y715000D02*
Y763000D01*
X373000D02*
X93000D01*
X449000D02*
X409000D01*
X373000Y92000D02*
X93000D01*
X433000D02*
X409000D01*
X467000Y727000D02*
Y763000D01*
X467000Y92000D02*
Y128000D01*
Y727000D02*
X449000D01*
X467000Y763000D02*
X433000D01*
X467000Y128000D02*
X449000D01*
X467000Y92000D02*
X433000D01*
X449000Y128000D02*
Y727000D01*
M02*
