G04*
G04 #@! TF.GenerationSoftware,Altium Limited,Altium NEXUS,2.0.14 (187)*
G04*
G04 Layer_Color=8421504*
%FSLAX44Y44*%
%MOMM*%
G71*
G01*
G75*
%ADD11R,0.2800X0.4300*%
%ADD12R,1.0000X0.7000*%
%ADD13R,0.5500X0.4500*%
%ADD14R,0.5200X0.5200*%
%ADD15R,0.5200X0.5200*%
%ADD16R,0.4900X0.5200*%
%ADD17R,0.5200X0.4900*%
%ADD18R,0.6000X0.8000*%
%ADD19R,1.3700X0.9700*%
%ADD20R,1.1500X1.6500*%
%ADD21R,0.9500X1.3500*%
%ADD22R,0.4500X0.5500*%
%ADD23R,1.0000X0.7500*%
%ADD24R,1.6500X2.3800*%
%ADD25R,0.7000X0.2500*%
%ADD26R,2.1000X2.1000*%
%ADD27O,0.3000X0.8500*%
%ADD28O,0.8500X0.3000*%
%ADD29R,0.5000X0.8500*%
%ADD30R,0.7000X0.6500*%
%ADD31R,0.4300X0.2800*%
%ADD32R,0.7000X1.0000*%
%ADD33R,1.1000X1.8000*%
%ADD34O,0.8000X0.2500*%
G04:AMPARAMS|DCode=36|XSize=0.5mm|YSize=0.25mm|CornerRadius=0.125mm|HoleSize=0mm|Usage=FLASHONLY|Rotation=180.000|XOffset=0mm|YOffset=0mm|HoleType=Round|Shape=RoundedRectangle|*
%AMROUNDEDRECTD36*
21,1,0.5000,0.0000,0,0,180.0*
21,1,0.2500,0.2500,0,0,180.0*
1,1,0.2500,-0.1250,0.0000*
1,1,0.2500,0.1250,0.0000*
1,1,0.2500,0.1250,0.0000*
1,1,0.2500,-0.1250,0.0000*
%
%ADD36ROUNDEDRECTD36*%
%ADD37R,4.0000X1.5000*%
%ADD39R,0.6500X0.7000*%
G04:AMPARAMS|DCode=41|XSize=0.24mm|YSize=0.6mm|CornerRadius=0.0504mm|HoleSize=0mm|Usage=FLASHONLY|Rotation=360.000|XOffset=0mm|YOffset=0mm|HoleType=Round|Shape=RoundedRectangle|*
%AMROUNDEDRECTD41*
21,1,0.2400,0.4992,0,0,360.0*
21,1,0.1392,0.6000,0,0,360.0*
1,1,0.1008,0.0696,-0.2496*
1,1,0.1008,-0.0696,-0.2496*
1,1,0.1008,-0.0696,0.2496*
1,1,0.1008,0.0696,0.2496*
%
%ADD41ROUNDEDRECTD41*%
G04:AMPARAMS|DCode=42|XSize=0.24mm|YSize=0.6mm|CornerRadius=0.0504mm|HoleSize=0mm|Usage=FLASHONLY|Rotation=90.000|XOffset=0mm|YOffset=0mm|HoleType=Round|Shape=RoundedRectangle|*
%AMROUNDEDRECTD42*
21,1,0.2400,0.4992,0,0,90.0*
21,1,0.1392,0.6000,0,0,90.0*
1,1,0.1008,0.2496,0.0696*
1,1,0.1008,0.2496,-0.0696*
1,1,0.1008,-0.2496,-0.0696*
1,1,0.1008,-0.2496,0.0696*
%
%ADD42ROUNDEDRECTD42*%
%ADD46R,0.6000X0.3500*%
%ADD47R,0.6500X1.7000*%
%ADD48R,0.5000X0.3500*%
%ADD51R,3.1500X3.1500*%
%ADD52O,1.0500X0.3000*%
%ADD53O,0.3000X1.0500*%
%ADD54R,1.4000X1.1500*%
%ADD55R,1.8000X1.0000*%
%ADD72R,0.6200X1.2500*%
%ADD73R,1.4070X1.4070*%
%ADD74R,0.3131X0.4025*%
%ADD75R,0.4025X0.3131*%
%ADD76R,0.4025X0.3131*%
D11*
X1165550Y142500D02*
D03*
X1160450D02*
D03*
X1144450Y142750D02*
D03*
X1149550D02*
D03*
X1228200Y176000D02*
D03*
X1233300D02*
D03*
X707550Y142500D02*
D03*
X702450D02*
D03*
X686450Y142750D02*
D03*
X691550D02*
D03*
X770200Y176000D02*
D03*
X775300D02*
D03*
X249550Y142500D02*
D03*
X244450D02*
D03*
X228450Y142750D02*
D03*
X233550D02*
D03*
X312200Y176000D02*
D03*
X317300D02*
D03*
D12*
X1219000Y512750D02*
D03*
Y531750D02*
D03*
X1245000D02*
D03*
Y522250D02*
D03*
Y512750D02*
D03*
X761000Y512750D02*
D03*
Y531750D02*
D03*
X787000D02*
D03*
Y522250D02*
D03*
Y512750D02*
D03*
X303000Y512750D02*
D03*
Y531750D02*
D03*
X329000D02*
D03*
Y522250D02*
D03*
Y512750D02*
D03*
D13*
X1121750Y418000D02*
D03*
Y409000D02*
D03*
X1195750Y417500D02*
D03*
Y408500D02*
D03*
X1204750Y715750D02*
D03*
Y706750D02*
D03*
X1196500Y715750D02*
D03*
Y706750D02*
D03*
X1204750Y686750D02*
D03*
Y695750D02*
D03*
X1196500Y686750D02*
D03*
Y695750D02*
D03*
X1205000Y671000D02*
D03*
Y662000D02*
D03*
X1196000Y671000D02*
D03*
Y662000D02*
D03*
Y654000D02*
D03*
Y645000D02*
D03*
X1176250Y730500D02*
D03*
Y739500D02*
D03*
X1184250Y739500D02*
D03*
Y730500D02*
D03*
X1192250D02*
D03*
Y739500D02*
D03*
X1200500Y739500D02*
D03*
Y730500D02*
D03*
X1208500Y739500D02*
D03*
Y730500D02*
D03*
X1216500Y730500D02*
D03*
Y739500D02*
D03*
X1290000Y659750D02*
D03*
Y668750D02*
D03*
X1281750Y668750D02*
D03*
Y659750D02*
D03*
X1281750Y652474D02*
D03*
Y643474D02*
D03*
X1290000Y643500D02*
D03*
Y652500D02*
D03*
X1298000Y652500D02*
D03*
Y643500D02*
D03*
X1281750Y636250D02*
D03*
Y627250D02*
D03*
X1289750Y636250D02*
D03*
Y627250D02*
D03*
X1256750Y578000D02*
D03*
Y569000D02*
D03*
X1265500Y578000D02*
D03*
Y569000D02*
D03*
X1313250Y557000D02*
D03*
Y566000D02*
D03*
X1322000Y566000D02*
D03*
Y557000D02*
D03*
X1278250Y234500D02*
D03*
Y225500D02*
D03*
Y209500D02*
D03*
Y218500D02*
D03*
X1270250Y183500D02*
D03*
Y174500D02*
D03*
X1278250Y183500D02*
D03*
Y174500D02*
D03*
X1286250Y183500D02*
D03*
Y174500D02*
D03*
X1296663Y433807D02*
D03*
Y442808D02*
D03*
X1288500Y433728D02*
D03*
Y442728D02*
D03*
X663750Y418000D02*
D03*
Y409000D02*
D03*
X737750Y417500D02*
D03*
Y408500D02*
D03*
X746750Y715750D02*
D03*
Y706750D02*
D03*
X738500Y715750D02*
D03*
Y706750D02*
D03*
X746750Y686750D02*
D03*
Y695750D02*
D03*
X738500Y686750D02*
D03*
Y695750D02*
D03*
X747000Y671000D02*
D03*
Y662000D02*
D03*
X738000Y671000D02*
D03*
Y662000D02*
D03*
Y654000D02*
D03*
Y645000D02*
D03*
X718250Y730500D02*
D03*
Y739500D02*
D03*
X726250Y739500D02*
D03*
Y730500D02*
D03*
X734250D02*
D03*
Y739500D02*
D03*
X742500Y739500D02*
D03*
Y730500D02*
D03*
X750500Y739500D02*
D03*
Y730500D02*
D03*
X758500Y730500D02*
D03*
Y739500D02*
D03*
X832000Y659750D02*
D03*
Y668750D02*
D03*
X823750Y668750D02*
D03*
Y659750D02*
D03*
X823750Y652474D02*
D03*
Y643474D02*
D03*
X832000Y643500D02*
D03*
Y652500D02*
D03*
X840000Y652500D02*
D03*
Y643500D02*
D03*
X823750Y636250D02*
D03*
Y627250D02*
D03*
X831750Y636250D02*
D03*
Y627250D02*
D03*
X798750Y578000D02*
D03*
Y569000D02*
D03*
X807500Y578000D02*
D03*
Y569000D02*
D03*
X855250Y557000D02*
D03*
Y566000D02*
D03*
X864000Y566000D02*
D03*
Y557000D02*
D03*
X820250Y234500D02*
D03*
Y225500D02*
D03*
Y209500D02*
D03*
Y218500D02*
D03*
X812250Y183500D02*
D03*
Y174500D02*
D03*
X820250Y183500D02*
D03*
Y174500D02*
D03*
X828250Y183500D02*
D03*
Y174500D02*
D03*
X838663Y433807D02*
D03*
Y442808D02*
D03*
X830500Y433728D02*
D03*
Y442728D02*
D03*
X205750Y418000D02*
D03*
Y409000D02*
D03*
X279750Y417500D02*
D03*
Y408500D02*
D03*
X288750Y715750D02*
D03*
Y706750D02*
D03*
X280500Y715750D02*
D03*
Y706750D02*
D03*
X288750Y686750D02*
D03*
Y695750D02*
D03*
X280500Y686750D02*
D03*
Y695750D02*
D03*
X289000Y671000D02*
D03*
Y662000D02*
D03*
X280000Y671000D02*
D03*
Y662000D02*
D03*
Y654000D02*
D03*
Y645000D02*
D03*
X260250Y730500D02*
D03*
Y739500D02*
D03*
X268250Y739500D02*
D03*
Y730500D02*
D03*
X276250D02*
D03*
Y739500D02*
D03*
X284500Y739500D02*
D03*
Y730500D02*
D03*
X292500Y739500D02*
D03*
Y730500D02*
D03*
X300500Y730500D02*
D03*
Y739500D02*
D03*
X374000Y659750D02*
D03*
Y668750D02*
D03*
X365750Y668750D02*
D03*
Y659750D02*
D03*
X365750Y652474D02*
D03*
Y643474D02*
D03*
X374000Y643500D02*
D03*
Y652500D02*
D03*
X382000Y652500D02*
D03*
Y643500D02*
D03*
X365750Y636250D02*
D03*
Y627250D02*
D03*
X373750Y636250D02*
D03*
Y627250D02*
D03*
X340750Y578000D02*
D03*
Y569000D02*
D03*
X349500Y578000D02*
D03*
Y569000D02*
D03*
X397250Y557000D02*
D03*
Y566000D02*
D03*
X406000Y566000D02*
D03*
Y557000D02*
D03*
X362250Y234500D02*
D03*
Y225500D02*
D03*
Y209500D02*
D03*
Y218500D02*
D03*
X354250Y183500D02*
D03*
Y174500D02*
D03*
X362250Y183500D02*
D03*
Y174500D02*
D03*
X370250Y183500D02*
D03*
Y174500D02*
D03*
X380663Y433807D02*
D03*
Y442808D02*
D03*
X372500Y433728D02*
D03*
Y442728D02*
D03*
D14*
X1130250Y408750D02*
D03*
X1138250D02*
D03*
X1155500Y408750D02*
D03*
X1147500D02*
D03*
X1204850Y412250D02*
D03*
X1212850D02*
D03*
X1223250Y428500D02*
D03*
X1215250D02*
D03*
X1233750Y739000D02*
D03*
X1225750D02*
D03*
X1267250Y741000D02*
D03*
X1275250D02*
D03*
X1267250Y732250D02*
D03*
X1275250D02*
D03*
X1238250Y228500D02*
D03*
X1246250D02*
D03*
X1241000Y176250D02*
D03*
X1249000D02*
D03*
X1114000Y154000D02*
D03*
X1122000D02*
D03*
X1160750Y108250D02*
D03*
X1152750D02*
D03*
X1188500Y142000D02*
D03*
X1196500D02*
D03*
X672250Y408750D02*
D03*
X680250D02*
D03*
X697500Y408750D02*
D03*
X689500D02*
D03*
X746850Y412250D02*
D03*
X754850D02*
D03*
X765250Y428500D02*
D03*
X757250D02*
D03*
X775750Y739000D02*
D03*
X767750D02*
D03*
X809250Y741000D02*
D03*
X817250D02*
D03*
X809250Y732250D02*
D03*
X817250D02*
D03*
X780250Y228500D02*
D03*
X788250D02*
D03*
X783000Y176250D02*
D03*
X791000D02*
D03*
X656000Y154000D02*
D03*
X664000D02*
D03*
X702750Y108250D02*
D03*
X694750D02*
D03*
X730500Y142000D02*
D03*
X738500D02*
D03*
X214250Y408750D02*
D03*
X222250D02*
D03*
X239500Y408750D02*
D03*
X231500D02*
D03*
X288850Y412250D02*
D03*
X296850D02*
D03*
X307250Y428500D02*
D03*
X299250D02*
D03*
X317750Y739000D02*
D03*
X309750D02*
D03*
X351250Y741000D02*
D03*
X359250D02*
D03*
X351250Y732250D02*
D03*
X359250D02*
D03*
X322250Y228500D02*
D03*
X330250D02*
D03*
X325000Y176250D02*
D03*
X333000D02*
D03*
X198000Y154000D02*
D03*
X206000D02*
D03*
X244750Y108250D02*
D03*
X236750D02*
D03*
X272500Y142000D02*
D03*
X280500D02*
D03*
D15*
X1172500Y418000D02*
D03*
Y426000D02*
D03*
X1221750Y402250D02*
D03*
Y394250D02*
D03*
X1205000Y653750D02*
D03*
Y645750D02*
D03*
X1299500Y693000D02*
D03*
Y701000D02*
D03*
X1247750Y569250D02*
D03*
Y577250D02*
D03*
X1205750Y512750D02*
D03*
Y520750D02*
D03*
X1193250Y370500D02*
D03*
Y362500D02*
D03*
Y345750D02*
D03*
Y353750D02*
D03*
X1233750Y336000D02*
D03*
Y328000D02*
D03*
X1243000Y336250D02*
D03*
Y328250D02*
D03*
X1287750Y335750D02*
D03*
Y327750D02*
D03*
X1295913Y335807D02*
D03*
Y327808D02*
D03*
X1278000Y242000D02*
D03*
Y250000D02*
D03*
X1278250Y202000D02*
D03*
Y194000D02*
D03*
X1219500Y123000D02*
D03*
Y115000D02*
D03*
X1301000Y122000D02*
D03*
Y114000D02*
D03*
X1316750Y417250D02*
D03*
Y409250D02*
D03*
X1266250Y435750D02*
D03*
Y427750D02*
D03*
X1320500Y358000D02*
D03*
Y366000D02*
D03*
X1258250Y436000D02*
D03*
Y428000D02*
D03*
X1243000Y435500D02*
D03*
Y427500D02*
D03*
X714500Y418000D02*
D03*
Y426000D02*
D03*
X763750Y402250D02*
D03*
Y394250D02*
D03*
X747000Y653750D02*
D03*
Y645750D02*
D03*
X841500Y693000D02*
D03*
Y701000D02*
D03*
X789750Y569250D02*
D03*
Y577250D02*
D03*
X747750Y512750D02*
D03*
Y520750D02*
D03*
X735250Y370500D02*
D03*
Y362500D02*
D03*
Y345750D02*
D03*
Y353750D02*
D03*
X775750Y336000D02*
D03*
Y328000D02*
D03*
X785000Y336250D02*
D03*
Y328250D02*
D03*
X829750Y335750D02*
D03*
Y327750D02*
D03*
X837913Y335807D02*
D03*
Y327808D02*
D03*
X820000Y242000D02*
D03*
Y250000D02*
D03*
X820250Y202000D02*
D03*
Y194000D02*
D03*
X761500Y123000D02*
D03*
Y115000D02*
D03*
X843000Y122000D02*
D03*
Y114000D02*
D03*
X858750Y417250D02*
D03*
Y409250D02*
D03*
X808250Y435750D02*
D03*
Y427750D02*
D03*
X862500Y358000D02*
D03*
Y366000D02*
D03*
X800250Y436000D02*
D03*
Y428000D02*
D03*
X785000Y435500D02*
D03*
Y427500D02*
D03*
X256500Y418000D02*
D03*
Y426000D02*
D03*
X305750Y402250D02*
D03*
Y394250D02*
D03*
X289000Y653750D02*
D03*
Y645750D02*
D03*
X383500Y693000D02*
D03*
Y701000D02*
D03*
X331750Y569250D02*
D03*
Y577250D02*
D03*
X289750Y512750D02*
D03*
Y520750D02*
D03*
X277250Y370500D02*
D03*
Y362500D02*
D03*
Y345750D02*
D03*
Y353750D02*
D03*
X317750Y336000D02*
D03*
Y328000D02*
D03*
X327000Y336250D02*
D03*
Y328250D02*
D03*
X371750Y335750D02*
D03*
Y327750D02*
D03*
X379913Y335807D02*
D03*
Y327808D02*
D03*
X362000Y242000D02*
D03*
Y250000D02*
D03*
X362250Y202000D02*
D03*
Y194000D02*
D03*
X303500Y123000D02*
D03*
Y115000D02*
D03*
X385000Y122000D02*
D03*
Y114000D02*
D03*
X400750Y417250D02*
D03*
Y409250D02*
D03*
X350250Y435750D02*
D03*
Y427750D02*
D03*
X404500Y358000D02*
D03*
Y366000D02*
D03*
X342250Y436000D02*
D03*
Y428000D02*
D03*
X327000Y435500D02*
D03*
Y427500D02*
D03*
D16*
X1163950Y408750D02*
D03*
X1172050D02*
D03*
X1179200D02*
D03*
X1187300D02*
D03*
X1204700Y401750D02*
D03*
X1212800D02*
D03*
X705950Y408750D02*
D03*
X714050D02*
D03*
X721200D02*
D03*
X729300D02*
D03*
X746700Y401750D02*
D03*
X754800D02*
D03*
X247950Y408750D02*
D03*
X256050D02*
D03*
X263200D02*
D03*
X271300D02*
D03*
X288700Y401750D02*
D03*
X296800D02*
D03*
D17*
X1221750Y419550D02*
D03*
Y411450D02*
D03*
X763750Y419550D02*
D03*
Y411450D02*
D03*
X305750Y419550D02*
D03*
Y411450D02*
D03*
D18*
X1244000Y739000D02*
D03*
X1258000D02*
D03*
X786000D02*
D03*
X800000D02*
D03*
X328000D02*
D03*
X342000D02*
D03*
D19*
X1286250Y692800D02*
D03*
Y708200D02*
D03*
X1320500Y392950D02*
D03*
Y377550D02*
D03*
X828250Y692800D02*
D03*
Y708200D02*
D03*
X862500Y392950D02*
D03*
Y377550D02*
D03*
X370250Y692800D02*
D03*
Y708200D02*
D03*
X404500Y392950D02*
D03*
Y377550D02*
D03*
D20*
X1224000Y625500D02*
D03*
X1194000D02*
D03*
X1224000Y605750D02*
D03*
X1194000D02*
D03*
X1223750Y585250D02*
D03*
X1193750D02*
D03*
X766000Y625500D02*
D03*
X736000D02*
D03*
X766000Y605750D02*
D03*
X736000D02*
D03*
X765750Y585250D02*
D03*
X735750D02*
D03*
X308000Y625500D02*
D03*
X278000D02*
D03*
X308000Y605750D02*
D03*
X278000D02*
D03*
X307750Y585250D02*
D03*
X277750D02*
D03*
D21*
X1257250Y625750D02*
D03*
X1241250D02*
D03*
X1257000Y608250D02*
D03*
X1241000D02*
D03*
X1257000Y591250D02*
D03*
X1241000D02*
D03*
X799250Y625750D02*
D03*
X783250D02*
D03*
X799000Y608250D02*
D03*
X783000D02*
D03*
X799000Y591250D02*
D03*
X783000D02*
D03*
X341250Y625750D02*
D03*
X325250D02*
D03*
X341000Y608250D02*
D03*
X325000D02*
D03*
X341000Y591250D02*
D03*
X325000D02*
D03*
D22*
X1227750Y544250D02*
D03*
X1218750D02*
D03*
X1235000Y544500D02*
D03*
X1244000D02*
D03*
X1245750Y500500D02*
D03*
X1236750D02*
D03*
X769750Y544250D02*
D03*
X760750D02*
D03*
X777000Y544500D02*
D03*
X786000D02*
D03*
X787750Y500500D02*
D03*
X778750D02*
D03*
X311750Y544250D02*
D03*
X302750D02*
D03*
X319000Y544500D02*
D03*
X328000D02*
D03*
X329750Y500500D02*
D03*
X320750D02*
D03*
D23*
X1263250Y557250D02*
D03*
Y542750D02*
D03*
X805250Y557250D02*
D03*
Y542750D02*
D03*
X347250Y557250D02*
D03*
Y542750D02*
D03*
D24*
X1289250Y564750D02*
D03*
X831250D02*
D03*
X373250D02*
D03*
D25*
X1275250Y572250D02*
D03*
Y567250D02*
D03*
Y562250D02*
D03*
Y557250D02*
D03*
X1303250Y572250D02*
D03*
Y567250D02*
D03*
Y562250D02*
D03*
Y557250D02*
D03*
X817250Y572250D02*
D03*
Y567250D02*
D03*
Y562250D02*
D03*
Y557250D02*
D03*
X845250Y572250D02*
D03*
Y567250D02*
D03*
Y562250D02*
D03*
Y557250D02*
D03*
X359250Y572250D02*
D03*
Y567250D02*
D03*
Y562250D02*
D03*
Y557250D02*
D03*
X387250Y572250D02*
D03*
Y567250D02*
D03*
Y562250D02*
D03*
Y557250D02*
D03*
D26*
X1294250Y516000D02*
D03*
X836250D02*
D03*
X378250D02*
D03*
D27*
X1304000Y497750D02*
D03*
X1297500D02*
D03*
X1291000D02*
D03*
X1284500D02*
D03*
Y534250D02*
D03*
X1291000D02*
D03*
X1297500D02*
D03*
X1304000D02*
D03*
X846000Y497750D02*
D03*
X839500D02*
D03*
X833000D02*
D03*
X826500D02*
D03*
Y534250D02*
D03*
X833000D02*
D03*
X839500D02*
D03*
X846000D02*
D03*
X388000Y497750D02*
D03*
X381500D02*
D03*
X375000D02*
D03*
X368500D02*
D03*
Y534250D02*
D03*
X375000D02*
D03*
X381500D02*
D03*
X388000D02*
D03*
D28*
X1276000Y506250D02*
D03*
Y512750D02*
D03*
Y519250D02*
D03*
Y525750D02*
D03*
X1312500D02*
D03*
Y519250D02*
D03*
Y512750D02*
D03*
Y506250D02*
D03*
X818000D02*
D03*
Y512750D02*
D03*
Y519250D02*
D03*
Y525750D02*
D03*
X854500D02*
D03*
Y519250D02*
D03*
Y512750D02*
D03*
Y506250D02*
D03*
X360000D02*
D03*
Y512750D02*
D03*
Y519250D02*
D03*
Y525750D02*
D03*
X396500D02*
D03*
Y519250D02*
D03*
Y512750D02*
D03*
Y506250D02*
D03*
D29*
X1339000Y157750D02*
D03*
X1349000D02*
D03*
Y140250D02*
D03*
X1339000D02*
D03*
X881000Y157750D02*
D03*
X891000D02*
D03*
Y140250D02*
D03*
X881000D02*
D03*
X423000Y157750D02*
D03*
X433000D02*
D03*
Y140250D02*
D03*
X423000D02*
D03*
D30*
X1276913Y335558D02*
D03*
Y322057D02*
D03*
X818913Y335558D02*
D03*
Y322057D02*
D03*
X360913Y335558D02*
D03*
Y322057D02*
D03*
D31*
X1207250Y206700D02*
D03*
Y211800D02*
D03*
X1258750Y202050D02*
D03*
Y196950D02*
D03*
X749250Y206700D02*
D03*
Y211800D02*
D03*
X800750Y202050D02*
D03*
Y196950D02*
D03*
X291250Y206700D02*
D03*
Y211800D02*
D03*
X342750Y202050D02*
D03*
Y196950D02*
D03*
D32*
X1122500Y141500D02*
D03*
X1113000Y115500D02*
D03*
X1132000D02*
D03*
X664500Y141500D02*
D03*
X655000Y115500D02*
D03*
X674000D02*
D03*
X206500Y141500D02*
D03*
X197000Y115500D02*
D03*
X216000D02*
D03*
D33*
X1192750Y122250D02*
D03*
X734750D02*
D03*
X276750D02*
D03*
D34*
X1179250Y114750D02*
D03*
Y119750D02*
D03*
Y124750D02*
D03*
Y129750D02*
D03*
X1206250D02*
D03*
Y124750D02*
D03*
Y119750D02*
D03*
Y114750D02*
D03*
X721250D02*
D03*
Y119750D02*
D03*
Y124750D02*
D03*
Y129750D02*
D03*
X748250D02*
D03*
Y124750D02*
D03*
Y119750D02*
D03*
Y114750D02*
D03*
X263250D02*
D03*
Y119750D02*
D03*
Y124750D02*
D03*
Y129750D02*
D03*
X290250D02*
D03*
Y124750D02*
D03*
Y119750D02*
D03*
Y114750D02*
D03*
D36*
X1272000Y112750D02*
D03*
Y119250D02*
D03*
Y125750D02*
D03*
X1291000D02*
D03*
Y119250D02*
D03*
Y112750D02*
D03*
X814000D02*
D03*
Y119250D02*
D03*
Y125750D02*
D03*
X833000D02*
D03*
Y119250D02*
D03*
Y112750D02*
D03*
X356000D02*
D03*
Y119250D02*
D03*
Y125750D02*
D03*
X375000D02*
D03*
Y119250D02*
D03*
Y112750D02*
D03*
D37*
X1347000Y110000D02*
D03*
Y745000D02*
D03*
X889000Y110000D02*
D03*
Y745000D02*
D03*
X431000Y110000D02*
D03*
Y745000D02*
D03*
D39*
X1289000Y265750D02*
D03*
X1318500D02*
D03*
X1289000Y246750D02*
D03*
X1318500D02*
D03*
X1288000Y218500D02*
D03*
X1317500D02*
D03*
X1288000Y199500D02*
D03*
X1317500D02*
D03*
X831000Y265750D02*
D03*
X860500D02*
D03*
X831000Y246750D02*
D03*
X860500D02*
D03*
X830000Y218500D02*
D03*
X859500D02*
D03*
X830000Y199500D02*
D03*
X859500D02*
D03*
X373000Y265750D02*
D03*
X402500D02*
D03*
X373000Y246750D02*
D03*
X402500D02*
D03*
X372000Y218500D02*
D03*
X401500D02*
D03*
X372000Y199500D02*
D03*
X401500D02*
D03*
D41*
X1243000Y416250D02*
D03*
X1248000D02*
D03*
X1253000D02*
D03*
X1258000D02*
D03*
X1263000D02*
D03*
X1268000D02*
D03*
X1273000D02*
D03*
X1278000D02*
D03*
X1283000D02*
D03*
X1288000D02*
D03*
X1293000D02*
D03*
X1298000D02*
D03*
Y348250D02*
D03*
X1293000D02*
D03*
X1288000D02*
D03*
X1283000D02*
D03*
X1278000D02*
D03*
X1273000D02*
D03*
X1268000D02*
D03*
X1263000D02*
D03*
X1258000D02*
D03*
X1253000D02*
D03*
X1248000D02*
D03*
X1243000D02*
D03*
X785000Y416250D02*
D03*
X790000D02*
D03*
X795000D02*
D03*
X800000D02*
D03*
X805000D02*
D03*
X810000D02*
D03*
X815000D02*
D03*
X820000D02*
D03*
X825000D02*
D03*
X830000D02*
D03*
X835000D02*
D03*
X840000D02*
D03*
Y348250D02*
D03*
X835000D02*
D03*
X830000D02*
D03*
X825000D02*
D03*
X820000D02*
D03*
X815000D02*
D03*
X810000D02*
D03*
X805000D02*
D03*
X800000D02*
D03*
X795000D02*
D03*
X790000D02*
D03*
X785000D02*
D03*
X327000Y416250D02*
D03*
X332000D02*
D03*
X337000D02*
D03*
X342000D02*
D03*
X347000D02*
D03*
X352000D02*
D03*
X357000D02*
D03*
X362000D02*
D03*
X367000D02*
D03*
X372000D02*
D03*
X377000D02*
D03*
X382000D02*
D03*
Y348250D02*
D03*
X377000D02*
D03*
X372000D02*
D03*
X367000D02*
D03*
X362000D02*
D03*
X357000D02*
D03*
X352000D02*
D03*
X347000D02*
D03*
X342000D02*
D03*
X337000D02*
D03*
X332000D02*
D03*
X327000D02*
D03*
D42*
X1304500Y409750D02*
D03*
Y404750D02*
D03*
Y399750D02*
D03*
Y394750D02*
D03*
Y389750D02*
D03*
Y384750D02*
D03*
Y379750D02*
D03*
Y374750D02*
D03*
Y369750D02*
D03*
Y364750D02*
D03*
Y359750D02*
D03*
Y354750D02*
D03*
X1236500D02*
D03*
Y359750D02*
D03*
Y364750D02*
D03*
Y369750D02*
D03*
Y374750D02*
D03*
Y379750D02*
D03*
Y384750D02*
D03*
Y389750D02*
D03*
Y394750D02*
D03*
Y399750D02*
D03*
Y404750D02*
D03*
Y409750D02*
D03*
X846500D02*
D03*
Y404750D02*
D03*
Y399750D02*
D03*
Y394750D02*
D03*
Y389750D02*
D03*
Y384750D02*
D03*
Y379750D02*
D03*
Y374750D02*
D03*
Y369750D02*
D03*
Y364750D02*
D03*
Y359750D02*
D03*
Y354750D02*
D03*
X778500D02*
D03*
Y359750D02*
D03*
Y364750D02*
D03*
Y369750D02*
D03*
Y374750D02*
D03*
Y379750D02*
D03*
Y384750D02*
D03*
Y389750D02*
D03*
Y394750D02*
D03*
Y399750D02*
D03*
Y404750D02*
D03*
Y409750D02*
D03*
X388500D02*
D03*
Y404750D02*
D03*
Y399750D02*
D03*
Y394750D02*
D03*
Y389750D02*
D03*
Y384750D02*
D03*
Y379750D02*
D03*
Y374750D02*
D03*
Y369750D02*
D03*
Y364750D02*
D03*
Y359750D02*
D03*
Y354750D02*
D03*
X320500D02*
D03*
Y359750D02*
D03*
Y364750D02*
D03*
Y369750D02*
D03*
Y374750D02*
D03*
Y379750D02*
D03*
Y384750D02*
D03*
Y389750D02*
D03*
Y394750D02*
D03*
Y399750D02*
D03*
Y404750D02*
D03*
Y409750D02*
D03*
D46*
X1165000Y119750D02*
D03*
Y129750D02*
D03*
X1147000D02*
D03*
Y119750D02*
D03*
X707000D02*
D03*
Y129750D02*
D03*
X689000D02*
D03*
Y119750D02*
D03*
X249000D02*
D03*
Y129750D02*
D03*
X231000D02*
D03*
Y119750D02*
D03*
D47*
X1156000Y124750D02*
D03*
X698000D02*
D03*
X240000D02*
D03*
D48*
X1232750Y115750D02*
D03*
Y122250D02*
D03*
Y128750D02*
D03*
Y135250D02*
D03*
X1253250D02*
D03*
Y128750D02*
D03*
Y122250D02*
D03*
Y115750D02*
D03*
X774750D02*
D03*
Y122250D02*
D03*
Y128750D02*
D03*
Y135250D02*
D03*
X795250D02*
D03*
Y128750D02*
D03*
Y122250D02*
D03*
Y115750D02*
D03*
X316750D02*
D03*
Y122250D02*
D03*
Y128750D02*
D03*
Y135250D02*
D03*
X337250D02*
D03*
Y128750D02*
D03*
Y122250D02*
D03*
Y115750D02*
D03*
D51*
X1243000Y680500D02*
D03*
X785000D02*
D03*
X327000D02*
D03*
D52*
X1266000Y695500D02*
D03*
Y690500D02*
D03*
Y685500D02*
D03*
Y680500D02*
D03*
Y675500D02*
D03*
Y670500D02*
D03*
Y665500D02*
D03*
X1220000D02*
D03*
Y670500D02*
D03*
Y675500D02*
D03*
Y680500D02*
D03*
Y685500D02*
D03*
Y690500D02*
D03*
Y695500D02*
D03*
X808000D02*
D03*
Y690500D02*
D03*
Y685500D02*
D03*
Y680500D02*
D03*
Y675500D02*
D03*
Y670500D02*
D03*
Y665500D02*
D03*
X762000D02*
D03*
Y670500D02*
D03*
Y675500D02*
D03*
Y680500D02*
D03*
Y685500D02*
D03*
Y690500D02*
D03*
Y695500D02*
D03*
X350000D02*
D03*
Y690500D02*
D03*
Y685500D02*
D03*
Y680500D02*
D03*
Y675500D02*
D03*
Y670500D02*
D03*
Y665500D02*
D03*
X304000D02*
D03*
Y670500D02*
D03*
Y675500D02*
D03*
Y680500D02*
D03*
Y685500D02*
D03*
Y690500D02*
D03*
Y695500D02*
D03*
D53*
X1258000Y657500D02*
D03*
X1253000D02*
D03*
X1248000D02*
D03*
X1243000D02*
D03*
X1238000D02*
D03*
X1233000D02*
D03*
X1228000D02*
D03*
Y703500D02*
D03*
X1233000D02*
D03*
X1238000D02*
D03*
X1243000D02*
D03*
X1248000D02*
D03*
X1253000D02*
D03*
X1258000D02*
D03*
X800000Y657500D02*
D03*
X795000D02*
D03*
X790000D02*
D03*
X785000D02*
D03*
X780000D02*
D03*
X775000D02*
D03*
X770000D02*
D03*
Y703500D02*
D03*
X775000D02*
D03*
X780000D02*
D03*
X785000D02*
D03*
X790000D02*
D03*
X795000D02*
D03*
X800000D02*
D03*
X342000Y657500D02*
D03*
X337000D02*
D03*
X332000D02*
D03*
X327000D02*
D03*
X322000D02*
D03*
X317000D02*
D03*
X312000D02*
D03*
Y703500D02*
D03*
X317000D02*
D03*
X322000D02*
D03*
X327000D02*
D03*
X332000D02*
D03*
X337000D02*
D03*
X342000D02*
D03*
D54*
X1244413Y467557D02*
D03*
X1266413D02*
D03*
Y451558D02*
D03*
X1244413D02*
D03*
X786413Y467557D02*
D03*
X808413D02*
D03*
Y451558D02*
D03*
X786413D02*
D03*
X328413Y467557D02*
D03*
X350413D02*
D03*
Y451558D02*
D03*
X328413D02*
D03*
D55*
X1207000Y345750D02*
D03*
Y370750D02*
D03*
X749000Y345750D02*
D03*
Y370750D02*
D03*
X291000Y345750D02*
D03*
Y370750D02*
D03*
D72*
X1281500Y119250D02*
D03*
X823500D02*
D03*
X365500D02*
D03*
D73*
X1254430Y366180D02*
D03*
X1286570D02*
D03*
X1270500D02*
D03*
Y398320D02*
D03*
X1286570D02*
D03*
X1254430D02*
D03*
Y382250D02*
D03*
X1286570D02*
D03*
X1270500D02*
D03*
X796430Y366180D02*
D03*
X828570D02*
D03*
X812500D02*
D03*
Y398320D02*
D03*
X828570D02*
D03*
X796430D02*
D03*
Y382250D02*
D03*
X828570D02*
D03*
X812500D02*
D03*
X338430Y366180D02*
D03*
X370570D02*
D03*
X354500D02*
D03*
Y398320D02*
D03*
X370570D02*
D03*
X338430D02*
D03*
Y382250D02*
D03*
X370570D02*
D03*
X354500D02*
D03*
D74*
X1238000Y214250D02*
D03*
X1233000D02*
D03*
X1228000D02*
D03*
X1228000Y189750D02*
D03*
X1233000D02*
D03*
X1238000D02*
D03*
X780000Y214250D02*
D03*
X775000D02*
D03*
X770000D02*
D03*
X770000Y189750D02*
D03*
X775000D02*
D03*
X780000D02*
D03*
X322000Y214250D02*
D03*
X317000D02*
D03*
X312000D02*
D03*
X312000Y189750D02*
D03*
X317000D02*
D03*
X322000D02*
D03*
D75*
X1220750Y212000D02*
D03*
Y192000D02*
D03*
X1245250D02*
D03*
Y212000D02*
D03*
X762750D02*
D03*
Y192000D02*
D03*
X787250D02*
D03*
Y212000D02*
D03*
X304750D02*
D03*
Y192000D02*
D03*
X329250D02*
D03*
Y212000D02*
D03*
D76*
X1220750Y207000D02*
D03*
Y202000D02*
D03*
Y197000D02*
D03*
X1245250Y197000D02*
D03*
Y202000D02*
D03*
Y207000D02*
D03*
X762750Y207000D02*
D03*
Y202000D02*
D03*
Y197000D02*
D03*
X787250Y197000D02*
D03*
Y202000D02*
D03*
Y207000D02*
D03*
X304750Y207000D02*
D03*
Y202000D02*
D03*
Y197000D02*
D03*
X329250Y197000D02*
D03*
Y202000D02*
D03*
Y207000D02*
D03*
M02*
