G04*
G04 #@! TF.GenerationSoftware,Altium Limited,Altium NEXUS,2.0.14 (187)*
G04*
G04 Layer_Color=32896*
%FSLAX44Y44*%
%MOMM*%
G71*
G01*
G75*
%ADD60C,0.0635*%
%ADD65C,0.1000*%
%ADD121C,1.0000*%
%ADD122R,0.5000X1.7000*%
D60*
X1199733Y430032D02*
X1202907D01*
X1203542Y429397D01*
Y428128D01*
X1202907Y427493D01*
X1199733D01*
X1203542Y426223D02*
Y424954D01*
Y425588D01*
X1199733D01*
X1200368Y426223D01*
X741733Y430032D02*
X744907D01*
X745542Y429397D01*
Y428128D01*
X744907Y427493D01*
X741733D01*
X745542Y426223D02*
Y424954D01*
Y425588D01*
X741733D01*
X742368Y426223D01*
X283733Y430032D02*
X286907D01*
X287542Y429397D01*
Y428128D01*
X286907Y427493D01*
X283733D01*
X287542Y426223D02*
Y424954D01*
Y425588D01*
X283733D01*
X284368Y426223D01*
D65*
X1357000Y70000D02*
G03*
X1387000Y100000I0J30000D01*
G01*
X987000D02*
G03*
X1017000Y70000I30000J0D01*
G01*
Y785000D02*
G03*
X987000Y755000I0J-30000D01*
G01*
X1387000Y755000D02*
G03*
X1357000Y785000I-30000J0D01*
G01*
X1387000Y100000D02*
Y755000D01*
X1357000Y70000D02*
X1017000D01*
X987000Y100000D02*
Y755000D01*
X1357000Y785000D02*
X1017000D01*
X1357000Y755000D02*
X1017000D01*
Y100000D02*
Y755000D01*
X1357000Y100000D02*
X1017000D01*
X1357000D02*
Y755000D01*
X899000Y70000D02*
G03*
X929000Y100000I0J30000D01*
G01*
X529000D02*
G03*
X559000Y70000I30000J0D01*
G01*
Y785000D02*
G03*
X529000Y755000I0J-30000D01*
G01*
X929000Y755000D02*
G03*
X899000Y785000I-30000J0D01*
G01*
X929000Y100000D02*
Y755000D01*
X899000Y70000D02*
X559000D01*
X529000Y100000D02*
Y755000D01*
X899000Y785000D02*
X559000D01*
X899000Y755000D02*
X559000D01*
Y100000D02*
Y755000D01*
X899000Y100000D02*
X559000D01*
X899000D02*
Y755000D01*
X441000Y70000D02*
G03*
X471000Y100000I0J30000D01*
G01*
X71000D02*
G03*
X101000Y70000I30000J0D01*
G01*
Y785000D02*
G03*
X71000Y755000I0J-30000D01*
G01*
X471000Y755000D02*
G03*
X441000Y785000I-30000J0D01*
G01*
X471000Y100000D02*
Y755000D01*
X441000Y70000D02*
X101000D01*
X71000Y100000D02*
Y755000D01*
X441000Y785000D02*
X101000D01*
X441000Y755000D02*
X101000D01*
Y100000D02*
Y755000D01*
X441000Y100000D02*
X101000D01*
X441000D02*
Y755000D01*
D121*
X1337000Y685000D02*
X1297000D01*
X1317000Y665000D02*
Y705000D01*
Y150000D02*
Y190000D01*
X879000Y685000D02*
X839000D01*
X859000Y665000D02*
Y705000D01*
Y150000D02*
Y190000D01*
X421000Y685000D02*
X381000D01*
X401000Y665000D02*
Y705000D01*
Y150000D02*
Y190000D01*
D122*
X1376999Y745000D02*
D03*
Y110000D02*
D03*
X918999Y745000D02*
D03*
Y110000D02*
D03*
X460999Y745000D02*
D03*
Y110000D02*
D03*
M02*
