G04*
G04 #@! TF.GenerationSoftware,Altium Limited,Altium NEXUS,2.0.14 (187)*
G04*
G04 Layer_Color=32768*
%FSLAX44Y44*%
%MOMM*%
G71*
G01*
G75*
%ADD66C,0.2540*%
%ADD124C,0.3810*%
%ADD125C,0.0254*%
D66*
X19727Y1308115D02*
Y1292880D01*
X29884D01*
X37501Y1303037D02*
X42580D01*
X45119Y1300497D01*
Y1292880D01*
X37501D01*
X34962Y1295419D01*
X37501Y1297958D01*
X45119D01*
X50197Y1303037D02*
Y1295419D01*
X52736Y1292880D01*
X60354D01*
Y1290341D01*
X57815Y1287802D01*
X55276D01*
X60354Y1292880D02*
Y1303037D01*
X73050Y1292880D02*
X67972D01*
X65432Y1295419D01*
Y1300497D01*
X67972Y1303037D01*
X73050D01*
X75589Y1300497D01*
Y1297958D01*
X65432D01*
X80667Y1303037D02*
Y1292880D01*
Y1297958D01*
X83207Y1300497D01*
X85746Y1303037D01*
X88285D01*
X19727Y896640D02*
X24805D01*
X22266D01*
Y911875D01*
X19727Y909336D01*
X32423D02*
X34962Y911875D01*
X40040D01*
X42580Y909336D01*
Y906797D01*
X40040Y904258D01*
X37501D01*
X40040D01*
X42580Y901718D01*
Y899179D01*
X40040Y896640D01*
X34962D01*
X32423Y899179D01*
X19727Y927120D02*
X24805D01*
X22266D01*
Y942355D01*
X19727Y939816D01*
X42580Y927120D02*
X32423D01*
X42580Y937277D01*
Y939816D01*
X40040Y942355D01*
X34962D01*
X32423Y939816D01*
X19727Y957600D02*
X24805D01*
X22266D01*
Y972835D01*
X19727Y970296D01*
X32423Y957600D02*
X37501D01*
X34962D01*
Y972835D01*
X32423Y970296D01*
X19727Y988080D02*
X24805D01*
X22266D01*
Y1003315D01*
X19727Y1000776D01*
X32423D02*
X34962Y1003315D01*
X40040D01*
X42580Y1000776D01*
Y990619D01*
X40040Y988080D01*
X34962D01*
X32423Y990619D01*
Y1000776D01*
X19727Y1021099D02*
X22266Y1018560D01*
X27345D01*
X29884Y1021099D01*
Y1031256D01*
X27345Y1033795D01*
X22266D01*
X19727Y1031256D01*
Y1028717D01*
X22266Y1026178D01*
X29884D01*
X19727Y1061736D02*
X22266Y1064275D01*
X27345D01*
X29884Y1061736D01*
Y1059197D01*
X27345Y1056657D01*
X29884Y1054118D01*
Y1051579D01*
X27345Y1049040D01*
X22266D01*
X19727Y1051579D01*
Y1054118D01*
X22266Y1056657D01*
X19727Y1059197D01*
Y1061736D01*
X22266Y1056657D02*
X27345D01*
X19727Y1094755D02*
X29884D01*
Y1092216D01*
X19727Y1082059D01*
Y1079520D01*
X29884Y1125235D02*
X24805Y1122696D01*
X19727Y1117617D01*
Y1112539D01*
X22266Y1110000D01*
X27345D01*
X29884Y1112539D01*
Y1115078D01*
X27345Y1117617D01*
X19727D01*
X29884Y1155715D02*
X19727D01*
Y1148098D01*
X24805Y1150637D01*
X27345D01*
X29884Y1148098D01*
Y1143019D01*
X27345Y1140480D01*
X22266D01*
X19727Y1143019D01*
X27345Y1170960D02*
Y1186195D01*
X19727Y1178577D01*
X29884D01*
X19727Y1214136D02*
X22266Y1216675D01*
X27345D01*
X29884Y1214136D01*
Y1211597D01*
X27345Y1209057D01*
X24805D01*
X27345D01*
X29884Y1206518D01*
Y1203979D01*
X27345Y1201440D01*
X22266D01*
X19727Y1203979D01*
X29884Y1231920D02*
X19727D01*
X29884Y1242077D01*
Y1244616D01*
X27345Y1247155D01*
X22266D01*
X19727Y1244616D01*
Y1262400D02*
X24805D01*
X22266D01*
Y1277635D01*
X19727Y1275096D01*
X123845Y1292880D02*
Y1308115D01*
X134002Y1292880D01*
Y1308115D01*
X141619Y1303037D02*
X146698D01*
X149237Y1300497D01*
Y1292880D01*
X141619D01*
X139080Y1295419D01*
X141619Y1297958D01*
X149237D01*
X154315Y1292880D02*
Y1303037D01*
X156854D01*
X159393Y1300497D01*
Y1292880D01*
Y1300497D01*
X161933Y1303037D01*
X164472Y1300497D01*
Y1292880D01*
X177168D02*
X172089D01*
X169550Y1295419D01*
Y1300497D01*
X172089Y1303037D01*
X177168D01*
X179707Y1300497D01*
Y1297958D01*
X169550D01*
X123845Y911875D02*
Y896640D01*
X131462D01*
X134002Y899179D01*
Y901718D01*
X131462Y904258D01*
X123845D01*
X131462D01*
X134002Y906797D01*
Y909336D01*
X131462Y911875D01*
X123845D01*
X141619Y896640D02*
X146698D01*
X149237Y899179D01*
Y904258D01*
X146698Y906797D01*
X141619D01*
X139080Y904258D01*
Y899179D01*
X141619Y896640D01*
X156854Y909336D02*
Y906797D01*
X154315D01*
X159393D01*
X156854D01*
Y899179D01*
X159393Y896640D01*
X169550Y909336D02*
Y906797D01*
X167011D01*
X172089D01*
X169550D01*
Y899179D01*
X172089Y896640D01*
X182246D02*
X187324D01*
X189863Y899179D01*
Y904258D01*
X187324Y906797D01*
X182246D01*
X179707Y904258D01*
Y899179D01*
X182246Y896640D01*
X194942D02*
Y906797D01*
X197481D01*
X200020Y904258D01*
Y896640D01*
Y904258D01*
X202559Y906797D01*
X205099Y904258D01*
Y896640D01*
X233030Y911875D02*
X227951D01*
X225412Y909336D01*
Y899179D01*
X227951Y896640D01*
X233030D01*
X235569Y899179D01*
Y909336D01*
X233030Y911875D01*
X240647Y906797D02*
X245725Y896640D01*
X250804Y906797D01*
X263500Y896640D02*
X258421D01*
X255882Y899179D01*
Y904258D01*
X258421Y906797D01*
X263500D01*
X266039Y904258D01*
Y901718D01*
X255882D01*
X271117Y906797D02*
Y896640D01*
Y901718D01*
X273656Y904258D01*
X276196Y906797D01*
X278735D01*
X286352Y896640D02*
X291431D01*
X288892D01*
Y911875D01*
X286352D01*
X301587Y906797D02*
X306666D01*
X309205Y904258D01*
Y896640D01*
X301587D01*
X299048Y899179D01*
X301587Y901718D01*
X309205D01*
X314283Y906797D02*
Y899179D01*
X316822Y896640D01*
X324440D01*
Y894101D01*
X321901Y891562D01*
X319362D01*
X324440Y896640D02*
Y906797D01*
X123845Y942355D02*
Y927120D01*
X131462D01*
X134002Y929659D01*
Y932198D01*
X131462Y934737D01*
X123845D01*
X131462D01*
X134002Y937277D01*
Y939816D01*
X131462Y942355D01*
X123845D01*
X141619Y927120D02*
X146698D01*
X149237Y929659D01*
Y934737D01*
X146698Y937277D01*
X141619D01*
X139080Y934737D01*
Y929659D01*
X141619Y927120D01*
X156854Y939816D02*
Y937277D01*
X154315D01*
X159393D01*
X156854D01*
Y929659D01*
X159393Y927120D01*
X169550Y939816D02*
Y937277D01*
X167011D01*
X172089D01*
X169550D01*
Y929659D01*
X172089Y927120D01*
X182246D02*
X187324D01*
X189863Y929659D01*
Y934737D01*
X187324Y937277D01*
X182246D01*
X179707Y934737D01*
Y929659D01*
X182246Y927120D01*
X194942D02*
Y937277D01*
X197481D01*
X200020Y934737D01*
Y927120D01*
Y934737D01*
X202559Y937277D01*
X205099Y934737D01*
Y927120D01*
X235569Y939816D02*
X233030Y942355D01*
X227951D01*
X225412Y939816D01*
Y937277D01*
X227951Y934737D01*
X233030D01*
X235569Y932198D01*
Y929659D01*
X233030Y927120D01*
X227951D01*
X225412Y929659D01*
X243186Y927120D02*
X248265D01*
X250804Y929659D01*
Y934737D01*
X248265Y937277D01*
X243186D01*
X240647Y934737D01*
Y929659D01*
X243186Y927120D01*
X255882D02*
X260961D01*
X258421D01*
Y942355D01*
X255882D01*
X278735D02*
Y927120D01*
X271117D01*
X268578Y929659D01*
Y934737D01*
X271117Y937277D01*
X278735D01*
X291431Y927120D02*
X286352D01*
X283813Y929659D01*
Y934737D01*
X286352Y937277D01*
X291431D01*
X293970Y934737D01*
Y932198D01*
X283813D01*
X299048Y937277D02*
Y927120D01*
Y932198D01*
X301587Y934737D01*
X304126Y937277D01*
X306666D01*
X123845Y972835D02*
Y957600D01*
X131462D01*
X134002Y960139D01*
Y962678D01*
X131462Y965218D01*
X123845D01*
X131462D01*
X134002Y967757D01*
Y970296D01*
X131462Y972835D01*
X123845D01*
X141619Y957600D02*
X146698D01*
X149237Y960139D01*
Y965218D01*
X146698Y967757D01*
X141619D01*
X139080Y965218D01*
Y960139D01*
X141619Y957600D01*
X156854Y970296D02*
Y967757D01*
X154315D01*
X159393D01*
X156854D01*
Y960139D01*
X159393Y957600D01*
X169550Y970296D02*
Y967757D01*
X167011D01*
X172089D01*
X169550D01*
Y960139D01*
X172089Y957600D01*
X182246D02*
X187324D01*
X189863Y960139D01*
Y965218D01*
X187324Y967757D01*
X182246D01*
X179707Y965218D01*
Y960139D01*
X182246Y957600D01*
X194942D02*
Y967757D01*
X197481D01*
X200020Y965218D01*
Y957600D01*
Y965218D01*
X202559Y967757D01*
X205099Y965218D01*
Y957600D01*
X225412Y972835D02*
Y957600D01*
X235569D01*
X243186Y967757D02*
X248265D01*
X250804Y965218D01*
Y957600D01*
X243186D01*
X240647Y960139D01*
X243186Y962678D01*
X250804D01*
X255882Y967757D02*
Y960139D01*
X258421Y957600D01*
X266039D01*
Y955061D01*
X263500Y952522D01*
X260961D01*
X266039Y957600D02*
Y967757D01*
X278735Y957600D02*
X273656D01*
X271117Y960139D01*
Y965218D01*
X273656Y967757D01*
X278735D01*
X281274Y965218D01*
Y962678D01*
X271117D01*
X286352Y967757D02*
Y957600D01*
Y962678D01*
X288892Y965218D01*
X291431Y967757D01*
X293970D01*
X123845Y1003315D02*
Y988080D01*
X131462D01*
X134002Y990619D01*
Y1000776D01*
X131462Y1003315D01*
X123845D01*
X139080Y988080D02*
X144158D01*
X141619D01*
Y998237D01*
X139080D01*
X159393Y988080D02*
X154315D01*
X151776Y990619D01*
Y995697D01*
X154315Y998237D01*
X159393D01*
X161933Y995697D01*
Y993158D01*
X151776D01*
X167011Y988080D02*
X172089D01*
X169550D01*
Y1003315D01*
X167011D01*
X187324Y988080D02*
X182246D01*
X179707Y990619D01*
Y995697D01*
X182246Y998237D01*
X187324D01*
X189863Y995697D01*
Y993158D01*
X179707D01*
X205099Y998237D02*
X197481D01*
X194942Y995697D01*
Y990619D01*
X197481Y988080D01*
X205099D01*
X212716Y1000776D02*
Y998237D01*
X210177D01*
X215255D01*
X212716D01*
Y990619D01*
X215255Y988080D01*
X222873Y998237D02*
Y988080D01*
Y993158D01*
X225412Y995697D01*
X227951Y998237D01*
X230490D01*
X238108Y988080D02*
X243186D01*
X240647D01*
Y998237D01*
X238108D01*
X260961D02*
X253343D01*
X250804Y995697D01*
Y990619D01*
X253343Y988080D01*
X260961D01*
X288892D02*
Y1003315D01*
X281274Y995697D01*
X291431D01*
X123845Y1033795D02*
Y1018560D01*
X131462D01*
X134002Y1021099D01*
Y1031256D01*
X131462Y1033795D01*
X123845D01*
X139080Y1018560D02*
X144158D01*
X141619D01*
Y1028717D01*
X139080D01*
X159393Y1018560D02*
X154315D01*
X151776Y1021099D01*
Y1026178D01*
X154315Y1028717D01*
X159393D01*
X161933Y1026178D01*
Y1023638D01*
X151776D01*
X167011Y1018560D02*
X172089D01*
X169550D01*
Y1033795D01*
X167011D01*
X187324Y1018560D02*
X182246D01*
X179707Y1021099D01*
Y1026178D01*
X182246Y1028717D01*
X187324D01*
X189863Y1026178D01*
Y1023638D01*
X179707D01*
X205099Y1028717D02*
X197481D01*
X194942Y1026178D01*
Y1021099D01*
X197481Y1018560D01*
X205099D01*
X212716Y1031256D02*
Y1028717D01*
X210177D01*
X215255D01*
X212716D01*
Y1021099D01*
X215255Y1018560D01*
X222873Y1028717D02*
Y1018560D01*
Y1023638D01*
X225412Y1026178D01*
X227951Y1028717D01*
X230490D01*
X238108Y1018560D02*
X243186D01*
X240647D01*
Y1028717D01*
X238108D01*
X260961D02*
X253343D01*
X250804Y1026178D01*
Y1021099D01*
X253343Y1018560D01*
X260961D01*
X281274Y1031256D02*
X283813Y1033795D01*
X288892D01*
X291431Y1031256D01*
Y1028717D01*
X288892Y1026178D01*
X286352D01*
X288892D01*
X291431Y1023638D01*
Y1021099D01*
X288892Y1018560D01*
X283813D01*
X281274Y1021099D01*
X123845Y1064275D02*
Y1049040D01*
X134002D01*
X141619Y1059197D02*
X146698D01*
X149237Y1056657D01*
Y1049040D01*
X141619D01*
X139080Y1051579D01*
X141619Y1054118D01*
X149237D01*
X154315Y1059197D02*
Y1051579D01*
X156854Y1049040D01*
X164472D01*
Y1046501D01*
X161933Y1043962D01*
X159393D01*
X164472Y1049040D02*
Y1059197D01*
X177168Y1049040D02*
X172089D01*
X169550Y1051579D01*
Y1056657D01*
X172089Y1059197D01*
X177168D01*
X179707Y1056657D01*
Y1054118D01*
X169550D01*
X184785Y1059197D02*
Y1049040D01*
Y1054118D01*
X187324Y1056657D01*
X189863Y1059197D01*
X192403D01*
X215255Y1061736D02*
X217794Y1064275D01*
X222873D01*
X225412Y1061736D01*
Y1059197D01*
X222873Y1056657D01*
X220334D01*
X222873D01*
X225412Y1054118D01*
Y1051579D01*
X222873Y1049040D01*
X217794D01*
X215255Y1051579D01*
X134002Y1092216D02*
X131462Y1094755D01*
X126384D01*
X123845Y1092216D01*
Y1082059D01*
X126384Y1079520D01*
X131462D01*
X134002Y1082059D01*
X141619Y1079520D02*
X146698D01*
X149237Y1082059D01*
Y1087138D01*
X146698Y1089677D01*
X141619D01*
X139080Y1087138D01*
Y1082059D01*
X141619Y1079520D01*
X154315Y1089677D02*
Y1079520D01*
Y1084598D01*
X156854Y1087138D01*
X159393Y1089677D01*
X161933D01*
X177168Y1079520D02*
X172089D01*
X169550Y1082059D01*
Y1087138D01*
X172089Y1089677D01*
X177168D01*
X179707Y1087138D01*
Y1084598D01*
X169550D01*
X123845Y1125235D02*
Y1110000D01*
X134002D01*
X141619Y1120157D02*
X146698D01*
X149237Y1117617D01*
Y1110000D01*
X141619D01*
X139080Y1112539D01*
X141619Y1115078D01*
X149237D01*
X154315Y1120157D02*
Y1112539D01*
X156854Y1110000D01*
X164472D01*
Y1107461D01*
X161933Y1104922D01*
X159393D01*
X164472Y1110000D02*
Y1120157D01*
X177168Y1110000D02*
X172089D01*
X169550Y1112539D01*
Y1117617D01*
X172089Y1120157D01*
X177168D01*
X179707Y1117617D01*
Y1115078D01*
X169550D01*
X184785Y1120157D02*
Y1110000D01*
Y1115078D01*
X187324Y1117617D01*
X189863Y1120157D01*
X192403D01*
X225412Y1110000D02*
X215255D01*
X225412Y1120157D01*
Y1122696D01*
X222873Y1125235D01*
X217794D01*
X215255Y1122696D01*
X123845Y1155715D02*
Y1140480D01*
X131462D01*
X134002Y1143019D01*
Y1153176D01*
X131462Y1155715D01*
X123845D01*
X139080Y1140480D02*
X144158D01*
X141619D01*
Y1150637D01*
X139080D01*
X159393Y1140480D02*
X154315D01*
X151776Y1143019D01*
Y1148098D01*
X154315Y1150637D01*
X159393D01*
X161933Y1148098D01*
Y1145558D01*
X151776D01*
X167011Y1140480D02*
X172089D01*
X169550D01*
Y1155715D01*
X167011D01*
X187324Y1140480D02*
X182246D01*
X179707Y1143019D01*
Y1148098D01*
X182246Y1150637D01*
X187324D01*
X189863Y1148098D01*
Y1145558D01*
X179707D01*
X205099Y1150637D02*
X197481D01*
X194942Y1148098D01*
Y1143019D01*
X197481Y1140480D01*
X205099D01*
X212716Y1153176D02*
Y1150637D01*
X210177D01*
X215255D01*
X212716D01*
Y1143019D01*
X215255Y1140480D01*
X222873Y1150637D02*
Y1140480D01*
Y1145558D01*
X225412Y1148098D01*
X227951Y1150637D01*
X230490D01*
X238108Y1140480D02*
X243186D01*
X240647D01*
Y1150637D01*
X238108D01*
X260961D02*
X253343D01*
X250804Y1148098D01*
Y1143019D01*
X253343Y1140480D01*
X260961D01*
X291431D02*
X281274D01*
X291431Y1150637D01*
Y1153176D01*
X288892Y1155715D01*
X283813D01*
X281274Y1153176D01*
X123845Y1186195D02*
Y1170960D01*
X131462D01*
X134002Y1173499D01*
Y1183656D01*
X131462Y1186195D01*
X123845D01*
X139080Y1170960D02*
X144158D01*
X141619D01*
Y1181117D01*
X139080D01*
X159393Y1170960D02*
X154315D01*
X151776Y1173499D01*
Y1178577D01*
X154315Y1181117D01*
X159393D01*
X161933Y1178577D01*
Y1176038D01*
X151776D01*
X167011Y1170960D02*
X172089D01*
X169550D01*
Y1186195D01*
X167011D01*
X187324Y1170960D02*
X182246D01*
X179707Y1173499D01*
Y1178577D01*
X182246Y1181117D01*
X187324D01*
X189863Y1178577D01*
Y1176038D01*
X179707D01*
X205099Y1181117D02*
X197481D01*
X194942Y1178577D01*
Y1173499D01*
X197481Y1170960D01*
X205099D01*
X212716Y1183656D02*
Y1181117D01*
X210177D01*
X215255D01*
X212716D01*
Y1173499D01*
X215255Y1170960D01*
X222873Y1181117D02*
Y1170960D01*
Y1176038D01*
X225412Y1178577D01*
X227951Y1181117D01*
X230490D01*
X238108Y1170960D02*
X243186D01*
X240647D01*
Y1181117D01*
X238108D01*
X260961D02*
X253343D01*
X250804Y1178577D01*
Y1173499D01*
X253343Y1170960D01*
X260961D01*
X281274D02*
X286352D01*
X283813D01*
Y1186195D01*
X281274Y1183656D01*
X123845Y1216675D02*
X134002D01*
X128923D01*
Y1201440D01*
X141619D02*
X146698D01*
X149237Y1203979D01*
Y1209057D01*
X146698Y1211597D01*
X141619D01*
X139080Y1209057D01*
Y1203979D01*
X141619Y1201440D01*
X154315Y1196362D02*
Y1211597D01*
X161933D01*
X164472Y1209057D01*
Y1203979D01*
X161933Y1201440D01*
X154315D01*
X184785Y1216675D02*
Y1201440D01*
X194942D01*
X202559Y1211597D02*
X207638D01*
X210177Y1209057D01*
Y1201440D01*
X202559D01*
X200020Y1203979D01*
X202559Y1206518D01*
X210177D01*
X215255Y1211597D02*
Y1203979D01*
X217794Y1201440D01*
X225412D01*
Y1198901D01*
X222873Y1196362D01*
X220334D01*
X225412Y1201440D02*
Y1211597D01*
X238108Y1201440D02*
X233030D01*
X230490Y1203979D01*
Y1209057D01*
X233030Y1211597D01*
X238108D01*
X240647Y1209057D01*
Y1206518D01*
X230490D01*
X245725Y1211597D02*
Y1201440D01*
Y1206518D01*
X248265Y1209057D01*
X250804Y1211597D01*
X253343D01*
X123845Y1247155D02*
X134002D01*
X128923D01*
Y1231920D01*
X141619D02*
X146698D01*
X149237Y1234459D01*
Y1239538D01*
X146698Y1242077D01*
X141619D01*
X139080Y1239538D01*
Y1234459D01*
X141619Y1231920D01*
X154315Y1226842D02*
Y1242077D01*
X161933D01*
X164472Y1239538D01*
Y1234459D01*
X161933Y1231920D01*
X154315D01*
X194942Y1244616D02*
X192403Y1247155D01*
X187324D01*
X184785Y1244616D01*
Y1242077D01*
X187324Y1239538D01*
X192403D01*
X194942Y1236998D01*
Y1234459D01*
X192403Y1231920D01*
X187324D01*
X184785Y1234459D01*
X202559Y1231920D02*
X207638D01*
X210177Y1234459D01*
Y1239538D01*
X207638Y1242077D01*
X202559D01*
X200020Y1239538D01*
Y1234459D01*
X202559Y1231920D01*
X215255D02*
X220334D01*
X217794D01*
Y1247155D01*
X215255D01*
X238108D02*
Y1231920D01*
X230490D01*
X227951Y1234459D01*
Y1239538D01*
X230490Y1242077D01*
X238108D01*
X250804Y1231920D02*
X245725D01*
X243186Y1234459D01*
Y1239538D01*
X245725Y1242077D01*
X250804D01*
X253343Y1239538D01*
Y1236998D01*
X243186D01*
X258421Y1242077D02*
Y1231920D01*
Y1236998D01*
X260961Y1239538D01*
X263500Y1242077D01*
X266039D01*
X123845Y1277635D02*
X134002D01*
X128923D01*
Y1262400D01*
X141619D02*
X146698D01*
X149237Y1264939D01*
Y1270017D01*
X146698Y1272557D01*
X141619D01*
X139080Y1270017D01*
Y1264939D01*
X141619Y1262400D01*
X154315Y1257322D02*
Y1272557D01*
X161933D01*
X164472Y1270017D01*
Y1264939D01*
X161933Y1262400D01*
X154315D01*
X192403Y1277635D02*
X187324D01*
X184785Y1275096D01*
Y1264939D01*
X187324Y1262400D01*
X192403D01*
X194942Y1264939D01*
Y1275096D01*
X192403Y1277635D01*
X200020Y1272557D02*
X205099Y1262400D01*
X210177Y1272557D01*
X222873Y1262400D02*
X217794D01*
X215255Y1264939D01*
Y1270017D01*
X217794Y1272557D01*
X222873D01*
X225412Y1270017D01*
Y1267478D01*
X215255D01*
X230490Y1272557D02*
Y1262400D01*
Y1267478D01*
X233030Y1270017D01*
X235569Y1272557D01*
X238108D01*
X245725Y1262400D02*
X250804D01*
X248265D01*
Y1277635D01*
X245725D01*
X260961Y1272557D02*
X266039D01*
X268578Y1270017D01*
Y1262400D01*
X260961D01*
X258421Y1264939D01*
X260961Y1267478D01*
X268578D01*
X273656Y1272557D02*
Y1264939D01*
X276196Y1262400D01*
X283813D01*
Y1259861D01*
X281274Y1257322D01*
X278735D01*
X283813Y1262400D02*
Y1272557D01*
X360000Y1292880D02*
Y1308115D01*
X365078Y1303037D01*
X370157Y1308115D01*
Y1292880D01*
X377774Y1303037D02*
X382853D01*
X385392Y1300497D01*
Y1292880D01*
X377774D01*
X375235Y1295419D01*
X377774Y1297958D01*
X385392D01*
X393009Y1305576D02*
Y1303037D01*
X390470D01*
X395549D01*
X393009D01*
Y1295419D01*
X395549Y1292880D01*
X410784D02*
X405705D01*
X403166Y1295419D01*
Y1300497D01*
X405705Y1303037D01*
X410784D01*
X413323Y1300497D01*
Y1297958D01*
X403166D01*
X418401Y1303037D02*
Y1292880D01*
Y1297958D01*
X420940Y1300497D01*
X423479Y1303037D01*
X426019D01*
X433636Y1292880D02*
X438714D01*
X436175D01*
Y1303037D01*
X433636D01*
X448871D02*
X453950D01*
X456489Y1300497D01*
Y1292880D01*
X448871D01*
X446332Y1295419D01*
X448871Y1297958D01*
X456489D01*
X461567Y1292880D02*
X466646D01*
X464106D01*
Y1308115D01*
X461567D01*
X370157Y939816D02*
X367617Y942355D01*
X362539D01*
X360000Y939816D01*
Y937277D01*
X362539Y934737D01*
X367617D01*
X370157Y932198D01*
Y929659D01*
X367617Y927120D01*
X362539D01*
X360000Y929659D01*
X377774Y927120D02*
X382853D01*
X385392Y929659D01*
Y934737D01*
X382853Y937277D01*
X377774D01*
X375235Y934737D01*
Y929659D01*
X377774Y927120D01*
X390470D02*
X395549D01*
X393009D01*
Y942355D01*
X390470D01*
X413323D02*
Y927120D01*
X405705D01*
X403166Y929659D01*
Y934737D01*
X405705Y937277D01*
X413323D01*
X426019Y927120D02*
X420940D01*
X418401Y929659D01*
Y934737D01*
X420940Y937277D01*
X426019D01*
X428558Y934737D01*
Y932198D01*
X418401D01*
X433636Y937277D02*
Y927120D01*
Y932198D01*
X436175Y934737D01*
X438714Y937277D01*
X441254D01*
X464106Y927120D02*
Y942355D01*
X471724D01*
X474263Y939816D01*
Y934737D01*
X471724Y932198D01*
X464106D01*
X469185D02*
X474263Y927120D01*
X486959D02*
X481881D01*
X479341Y929659D01*
Y934737D01*
X481881Y937277D01*
X486959D01*
X489498Y934737D01*
Y932198D01*
X479341D01*
X494576Y927120D02*
X502194D01*
X504733Y929659D01*
X502194Y932198D01*
X497116D01*
X494576Y934737D01*
X497116Y937277D01*
X504733D01*
X509812Y927120D02*
X514890D01*
X512351D01*
Y937277D01*
X509812D01*
X522507Y927120D02*
X530125D01*
X532664Y929659D01*
X530125Y932198D01*
X525047D01*
X522507Y934737D01*
X525047Y937277D01*
X532664D01*
X540282Y939816D02*
Y937277D01*
X537743D01*
X542821D01*
X540282D01*
Y929659D01*
X542821Y927120D01*
X370157Y970296D02*
X367617Y972835D01*
X362539D01*
X360000Y970296D01*
Y960139D01*
X362539Y957600D01*
X367617D01*
X370157Y960139D01*
X377774Y957600D02*
X382853D01*
X385392Y960139D01*
Y965218D01*
X382853Y967757D01*
X377774D01*
X375235Y965218D01*
Y960139D01*
X377774Y957600D01*
X390470Y952522D02*
Y967757D01*
X398088D01*
X400627Y965218D01*
Y960139D01*
X398088Y957600D01*
X390470D01*
X405705Y952522D02*
Y967757D01*
X413323D01*
X415862Y965218D01*
Y960139D01*
X413323Y957600D01*
X405705D01*
X428558D02*
X423479D01*
X420940Y960139D01*
Y965218D01*
X423479Y967757D01*
X428558D01*
X431097Y965218D01*
Y962678D01*
X420940D01*
X436175Y967757D02*
Y957600D01*
Y962678D01*
X438714Y965218D01*
X441254Y967757D01*
X443793D01*
X360000Y988080D02*
X365078D01*
X362539D01*
Y1003315D01*
X360000Y1000776D01*
X372696D02*
X375235Y1003315D01*
X380313D01*
X382853Y1000776D01*
Y990619D01*
X380313Y988080D01*
X375235D01*
X372696Y990619D01*
Y1000776D01*
X387931D02*
X390470Y1003315D01*
X395549D01*
X398088Y1000776D01*
Y998237D01*
X395549Y995697D01*
X398088Y993158D01*
Y990619D01*
X395549Y988080D01*
X390470D01*
X387931Y990619D01*
Y993158D01*
X390470Y995697D01*
X387931Y998237D01*
Y1000776D01*
X390470Y995697D02*
X395549D01*
X403166Y1000776D02*
X405705Y1003315D01*
X410784D01*
X413323Y1000776D01*
Y990619D01*
X410784Y988080D01*
X405705D01*
X403166Y990619D01*
Y1000776D01*
X360000Y1018560D02*
X365078D01*
X362539D01*
Y1033795D01*
X360000Y1031256D01*
X372696D02*
X375235Y1033795D01*
X380313D01*
X382853Y1031256D01*
Y1021099D01*
X380313Y1018560D01*
X375235D01*
X372696Y1021099D01*
Y1031256D01*
X387931D02*
X390470Y1033795D01*
X395549D01*
X398088Y1031256D01*
Y1028717D01*
X395549Y1026178D01*
X398088Y1023638D01*
Y1021099D01*
X395549Y1018560D01*
X390470D01*
X387931Y1021099D01*
Y1023638D01*
X390470Y1026178D01*
X387931Y1028717D01*
Y1031256D01*
X390470Y1026178D02*
X395549D01*
X403166Y1031256D02*
X405705Y1033795D01*
X410784D01*
X413323Y1031256D01*
Y1021099D01*
X410784Y1018560D01*
X405705D01*
X403166Y1021099D01*
Y1031256D01*
X370157Y1061736D02*
X367617Y1064275D01*
X362539D01*
X360000Y1061736D01*
Y1051579D01*
X362539Y1049040D01*
X367617D01*
X370157Y1051579D01*
X377774Y1049040D02*
X382853D01*
X385392Y1051579D01*
Y1056657D01*
X382853Y1059197D01*
X377774D01*
X375235Y1056657D01*
Y1051579D01*
X377774Y1049040D01*
X390470Y1043962D02*
Y1059197D01*
X398088D01*
X400627Y1056657D01*
Y1051579D01*
X398088Y1049040D01*
X390470D01*
X405705Y1043962D02*
Y1059197D01*
X413323D01*
X415862Y1056657D01*
Y1051579D01*
X413323Y1049040D01*
X405705D01*
X428558D02*
X423479D01*
X420940Y1051579D01*
Y1056657D01*
X423479Y1059197D01*
X428558D01*
X431097Y1056657D01*
Y1054118D01*
X420940D01*
X436175Y1059197D02*
Y1049040D01*
Y1054118D01*
X438714Y1056657D01*
X441254Y1059197D01*
X443793D01*
X370157Y1094755D02*
X360000D01*
Y1087138D01*
X365078D01*
X360000D01*
Y1079520D01*
X375235D02*
Y1094755D01*
X382853D01*
X385392Y1092216D01*
Y1087138D01*
X382853Y1084598D01*
X375235D01*
X380313D02*
X385392Y1079520D01*
X390470Y1087138D02*
X400627D01*
X413323Y1079520D02*
Y1094755D01*
X405705Y1087138D01*
X415862D01*
X370157Y1122696D02*
X367617Y1125235D01*
X362539D01*
X360000Y1122696D01*
Y1112539D01*
X362539Y1110000D01*
X367617D01*
X370157Y1112539D01*
X377774Y1110000D02*
X382853D01*
X385392Y1112539D01*
Y1117617D01*
X382853Y1120157D01*
X377774D01*
X375235Y1117617D01*
Y1112539D01*
X377774Y1110000D01*
X390470Y1104922D02*
Y1120157D01*
X398088D01*
X400627Y1117617D01*
Y1112539D01*
X398088Y1110000D01*
X390470D01*
X405705Y1104922D02*
Y1120157D01*
X413323D01*
X415862Y1117617D01*
Y1112539D01*
X413323Y1110000D01*
X405705D01*
X428558D02*
X423479D01*
X420940Y1112539D01*
Y1117617D01*
X423479Y1120157D01*
X428558D01*
X431097Y1117617D01*
Y1115078D01*
X420940D01*
X436175Y1120157D02*
Y1110000D01*
Y1115078D01*
X438714Y1117617D01*
X441254Y1120157D01*
X443793D01*
X360000Y1140480D02*
X365078D01*
X362539D01*
Y1155715D01*
X360000Y1153176D01*
X372696D02*
X375235Y1155715D01*
X380313D01*
X382853Y1153176D01*
Y1143019D01*
X380313Y1140480D01*
X375235D01*
X372696Y1143019D01*
Y1153176D01*
X387931D02*
X390470Y1155715D01*
X395549D01*
X398088Y1153176D01*
Y1150637D01*
X395549Y1148098D01*
X398088Y1145558D01*
Y1143019D01*
X395549Y1140480D01*
X390470D01*
X387931Y1143019D01*
Y1145558D01*
X390470Y1148098D01*
X387931Y1150637D01*
Y1153176D01*
X390470Y1148098D02*
X395549D01*
X403166Y1153176D02*
X405705Y1155715D01*
X410784D01*
X413323Y1153176D01*
Y1143019D01*
X410784Y1140480D01*
X405705D01*
X403166Y1143019D01*
Y1153176D01*
X360000Y1170960D02*
X365078D01*
X362539D01*
Y1186195D01*
X360000Y1183656D01*
X372696D02*
X375235Y1186195D01*
X380313D01*
X382853Y1183656D01*
Y1173499D01*
X380313Y1170960D01*
X375235D01*
X372696Y1173499D01*
Y1183656D01*
X387931D02*
X390470Y1186195D01*
X395549D01*
X398088Y1183656D01*
Y1181117D01*
X395549Y1178577D01*
X398088Y1176038D01*
Y1173499D01*
X395549Y1170960D01*
X390470D01*
X387931Y1173499D01*
Y1176038D01*
X390470Y1178577D01*
X387931Y1181117D01*
Y1183656D01*
X390470Y1178577D02*
X395549D01*
X403166Y1183656D02*
X405705Y1186195D01*
X410784D01*
X413323Y1183656D01*
Y1173499D01*
X410784Y1170960D01*
X405705D01*
X403166Y1173499D01*
Y1183656D01*
X370157Y1214136D02*
X367617Y1216675D01*
X362539D01*
X360000Y1214136D01*
Y1203979D01*
X362539Y1201440D01*
X367617D01*
X370157Y1203979D01*
X377774Y1201440D02*
X382853D01*
X385392Y1203979D01*
Y1209057D01*
X382853Y1211597D01*
X377774D01*
X375235Y1209057D01*
Y1203979D01*
X377774Y1201440D01*
X390470Y1196362D02*
Y1211597D01*
X398088D01*
X400627Y1209057D01*
Y1203979D01*
X398088Y1201440D01*
X390470D01*
X405705Y1196362D02*
Y1211597D01*
X413323D01*
X415862Y1209057D01*
Y1203979D01*
X413323Y1201440D01*
X405705D01*
X428558D02*
X423479D01*
X420940Y1203979D01*
Y1209057D01*
X423479Y1211597D01*
X428558D01*
X431097Y1209057D01*
Y1206518D01*
X420940D01*
X436175Y1211597D02*
Y1201440D01*
Y1206518D01*
X438714Y1209057D01*
X441254Y1211597D01*
X443793D01*
X370157Y1244616D02*
X367617Y1247155D01*
X362539D01*
X360000Y1244616D01*
Y1242077D01*
X362539Y1239538D01*
X367617D01*
X370157Y1236998D01*
Y1234459D01*
X367617Y1231920D01*
X362539D01*
X360000Y1234459D01*
X377774Y1231920D02*
X382853D01*
X385392Y1234459D01*
Y1239538D01*
X382853Y1242077D01*
X377774D01*
X375235Y1239538D01*
Y1234459D01*
X377774Y1231920D01*
X390470D02*
X395549D01*
X393009D01*
Y1247155D01*
X390470D01*
X413323D02*
Y1231920D01*
X405705D01*
X403166Y1234459D01*
Y1239538D01*
X405705Y1242077D01*
X413323D01*
X426019Y1231920D02*
X420940D01*
X418401Y1234459D01*
Y1239538D01*
X420940Y1242077D01*
X426019D01*
X428558Y1239538D01*
Y1236998D01*
X418401D01*
X433636Y1242077D02*
Y1231920D01*
Y1236998D01*
X436175Y1239538D01*
X438714Y1242077D01*
X441254D01*
X464106Y1231920D02*
Y1247155D01*
X471724D01*
X474263Y1244616D01*
Y1239538D01*
X471724Y1236998D01*
X464106D01*
X469185D02*
X474263Y1231920D01*
X486959D02*
X481881D01*
X479341Y1234459D01*
Y1239538D01*
X481881Y1242077D01*
X486959D01*
X489498Y1239538D01*
Y1236998D01*
X479341D01*
X494576Y1231920D02*
X502194D01*
X504733Y1234459D01*
X502194Y1236998D01*
X497116D01*
X494576Y1239538D01*
X497116Y1242077D01*
X504733D01*
X509812Y1231920D02*
X514890D01*
X512351D01*
Y1242077D01*
X509812D01*
X522507Y1231920D02*
X530125D01*
X532664Y1234459D01*
X530125Y1236998D01*
X525047D01*
X522507Y1239538D01*
X525047Y1242077D01*
X532664D01*
X540282Y1244616D02*
Y1242077D01*
X537743D01*
X542821D01*
X540282D01*
Y1234459D01*
X542821Y1231920D01*
X578381Y1308115D02*
X588538D01*
X583459D01*
Y1292880D01*
X593616Y1308115D02*
Y1292880D01*
Y1300497D01*
X596155Y1303037D01*
X601233D01*
X603773Y1300497D01*
Y1292880D01*
X608851D02*
X613929D01*
X611390D01*
Y1303037D01*
X608851D01*
X631704D02*
X624086D01*
X621547Y1300497D01*
Y1295419D01*
X624086Y1292880D01*
X631704D01*
X636782D02*
Y1308115D01*
Y1297958D02*
X644399Y1303037D01*
X636782Y1297958D02*
X644399Y1292880D01*
X652017D02*
Y1303037D01*
X659634D01*
X662174Y1300497D01*
Y1292880D01*
X674870D02*
X669791D01*
X667252Y1295419D01*
Y1300497D01*
X669791Y1303037D01*
X674870D01*
X677409Y1300497D01*
Y1297958D01*
X667252D01*
X682487Y1292880D02*
X690105D01*
X692644Y1295419D01*
X690105Y1297958D01*
X685026D01*
X682487Y1300497D01*
X685026Y1303037D01*
X692644D01*
X697722Y1292880D02*
X705340D01*
X707879Y1295419D01*
X705340Y1297958D01*
X700261D01*
X697722Y1300497D01*
X700261Y1303037D01*
X707879D01*
X578381Y939816D02*
X580920Y942355D01*
X585998D01*
X588538Y939816D01*
Y929659D01*
X585998Y927120D01*
X580920D01*
X578381Y929659D01*
Y939816D01*
X593616Y927120D02*
Y929659D01*
X596155D01*
Y927120D01*
X593616D01*
X606312Y939816D02*
X608851Y942355D01*
X613929D01*
X616469Y939816D01*
Y929659D01*
X613929Y927120D01*
X608851D01*
X606312Y929659D01*
Y939816D01*
X621547Y927120D02*
X626625D01*
X624086D01*
Y942355D01*
X621547Y939816D01*
X634243D02*
X636782Y942355D01*
X641860D01*
X644399Y939816D01*
Y929659D01*
X641860Y927120D01*
X636782D01*
X634243Y929659D01*
Y939816D01*
X649478Y927120D02*
Y937277D01*
X652017D01*
X654556Y934737D01*
Y927120D01*
Y934737D01*
X657095Y937277D01*
X659634Y934737D01*
Y927120D01*
X664713D02*
Y937277D01*
X667252D01*
X669791Y934737D01*
Y927120D01*
Y934737D01*
X672330Y937277D01*
X674870Y934737D01*
Y927120D01*
X578381Y970296D02*
X580920Y972835D01*
X585998D01*
X588538Y970296D01*
Y960139D01*
X585998Y957600D01*
X580920D01*
X578381Y960139D01*
Y970296D01*
X593616Y957600D02*
Y960139D01*
X596155D01*
Y957600D01*
X593616D01*
X606312Y970296D02*
X608851Y972835D01*
X613929D01*
X616469Y970296D01*
Y960139D01*
X613929Y957600D01*
X608851D01*
X606312Y960139D01*
Y970296D01*
X621547Y957600D02*
X626625D01*
X624086D01*
Y972835D01*
X621547Y970296D01*
X634243D02*
X636782Y972835D01*
X641860D01*
X644399Y970296D01*
Y967757D01*
X641860Y965218D01*
X644399Y962678D01*
Y960139D01*
X641860Y957600D01*
X636782D01*
X634243Y960139D01*
Y962678D01*
X636782Y965218D01*
X634243Y967757D01*
Y970296D01*
X636782Y965218D02*
X641860D01*
X649478Y957600D02*
Y967757D01*
X652017D01*
X654556Y965218D01*
Y957600D01*
Y965218D01*
X657095Y967757D01*
X659634Y965218D01*
Y957600D01*
X664713D02*
Y967757D01*
X667252D01*
X669791Y965218D01*
Y957600D01*
Y965218D01*
X672330Y967757D01*
X674870Y965218D01*
Y957600D01*
X578381Y1000776D02*
X580920Y1003315D01*
X585998D01*
X588538Y1000776D01*
Y990619D01*
X585998Y988080D01*
X580920D01*
X578381Y990619D01*
Y1000776D01*
X593616Y988080D02*
Y990619D01*
X596155D01*
Y988080D01*
X593616D01*
X606312Y1000776D02*
X608851Y1003315D01*
X613929D01*
X616469Y1000776D01*
Y990619D01*
X613929Y988080D01*
X608851D01*
X606312Y990619D01*
Y1000776D01*
X621547Y1003315D02*
X631704D01*
Y1000776D01*
X621547Y990619D01*
Y988080D01*
X636782Y1000776D02*
X639321Y1003315D01*
X644399D01*
X646939Y1000776D01*
Y990619D01*
X644399Y988080D01*
X639321D01*
X636782Y990619D01*
Y1000776D01*
X652017Y988080D02*
Y998237D01*
X654556D01*
X657095Y995697D01*
Y988080D01*
Y995697D01*
X659634Y998237D01*
X662174Y995697D01*
Y988080D01*
X667252D02*
Y998237D01*
X669791D01*
X672330Y995697D01*
Y988080D01*
Y995697D01*
X674870Y998237D01*
X677409Y995697D01*
Y988080D01*
X578381Y1031256D02*
X580920Y1033795D01*
X585998D01*
X588538Y1031256D01*
Y1021099D01*
X585998Y1018560D01*
X580920D01*
X578381Y1021099D01*
Y1031256D01*
X593616Y1018560D02*
Y1021099D01*
X596155D01*
Y1018560D01*
X593616D01*
X606312Y1031256D02*
X608851Y1033795D01*
X613929D01*
X616469Y1031256D01*
Y1021099D01*
X613929Y1018560D01*
X608851D01*
X606312Y1021099D01*
Y1031256D01*
X621547Y1033795D02*
X631704D01*
Y1031256D01*
X621547Y1021099D01*
Y1018560D01*
X636782Y1031256D02*
X639321Y1033795D01*
X644399D01*
X646939Y1031256D01*
Y1021099D01*
X644399Y1018560D01*
X639321D01*
X636782Y1021099D01*
Y1031256D01*
X652017Y1018560D02*
Y1028717D01*
X654556D01*
X657095Y1026178D01*
Y1018560D01*
Y1026178D01*
X659634Y1028717D01*
X662174Y1026178D01*
Y1018560D01*
X667252D02*
Y1028717D01*
X669791D01*
X672330Y1026178D01*
Y1018560D01*
Y1026178D01*
X674870Y1028717D01*
X677409Y1026178D01*
Y1018560D01*
X578381Y1061736D02*
X580920Y1064275D01*
X585998D01*
X588538Y1061736D01*
Y1051579D01*
X585998Y1049040D01*
X580920D01*
X578381Y1051579D01*
Y1061736D01*
X593616Y1049040D02*
Y1051579D01*
X596155D01*
Y1049040D01*
X593616D01*
X606312Y1061736D02*
X608851Y1064275D01*
X613929D01*
X616469Y1061736D01*
Y1051579D01*
X613929Y1049040D01*
X608851D01*
X606312Y1051579D01*
Y1061736D01*
X621547Y1049040D02*
X626625D01*
X624086D01*
Y1064275D01*
X621547Y1061736D01*
X634243D02*
X636782Y1064275D01*
X641860D01*
X644399Y1061736D01*
Y1059197D01*
X641860Y1056657D01*
X644399Y1054118D01*
Y1051579D01*
X641860Y1049040D01*
X636782D01*
X634243Y1051579D01*
Y1054118D01*
X636782Y1056657D01*
X634243Y1059197D01*
Y1061736D01*
X636782Y1056657D02*
X641860D01*
X649478Y1049040D02*
Y1059197D01*
X652017D01*
X654556Y1056657D01*
Y1049040D01*
Y1056657D01*
X657095Y1059197D01*
X659634Y1056657D01*
Y1049040D01*
X664713D02*
Y1059197D01*
X667252D01*
X669791Y1056657D01*
Y1049040D01*
Y1056657D01*
X672330Y1059197D01*
X674870Y1056657D01*
Y1049040D01*
X578381Y1092216D02*
X580920Y1094755D01*
X585998D01*
X588538Y1092216D01*
Y1082059D01*
X585998Y1079520D01*
X580920D01*
X578381Y1082059D01*
Y1092216D01*
X593616Y1079520D02*
Y1082059D01*
X596155D01*
Y1079520D01*
X593616D01*
X616469D02*
X606312D01*
X616469Y1089677D01*
Y1092216D01*
X613929Y1094755D01*
X608851D01*
X606312Y1092216D01*
X621547D02*
X624086Y1094755D01*
X629164D01*
X631704Y1092216D01*
Y1082059D01*
X629164Y1079520D01*
X624086D01*
X621547Y1082059D01*
Y1092216D01*
X636782D02*
X639321Y1094755D01*
X644399D01*
X646939Y1092216D01*
Y1082059D01*
X644399Y1079520D01*
X639321D01*
X636782Y1082059D01*
Y1092216D01*
X652017Y1079520D02*
Y1089677D01*
X654556D01*
X657095Y1087138D01*
Y1079520D01*
Y1087138D01*
X659634Y1089677D01*
X662174Y1087138D01*
Y1079520D01*
X667252D02*
Y1089677D01*
X669791D01*
X672330Y1087138D01*
Y1079520D01*
Y1087138D01*
X674870Y1089677D01*
X677409Y1087138D01*
Y1079520D01*
X578381Y1122696D02*
X580920Y1125235D01*
X585998D01*
X588538Y1122696D01*
Y1112539D01*
X585998Y1110000D01*
X580920D01*
X578381Y1112539D01*
Y1122696D01*
X593616Y1110000D02*
Y1112539D01*
X596155D01*
Y1110000D01*
X593616D01*
X606312Y1122696D02*
X608851Y1125235D01*
X613929D01*
X616469Y1122696D01*
Y1112539D01*
X613929Y1110000D01*
X608851D01*
X606312Y1112539D01*
Y1122696D01*
X621547Y1110000D02*
X626625D01*
X624086D01*
Y1125235D01*
X621547Y1122696D01*
X634243D02*
X636782Y1125235D01*
X641860D01*
X644399Y1122696D01*
Y1120157D01*
X641860Y1117617D01*
X644399Y1115078D01*
Y1112539D01*
X641860Y1110000D01*
X636782D01*
X634243Y1112539D01*
Y1115078D01*
X636782Y1117617D01*
X634243Y1120157D01*
Y1122696D01*
X636782Y1117617D02*
X641860D01*
X649478Y1110000D02*
Y1120157D01*
X652017D01*
X654556Y1117617D01*
Y1110000D01*
Y1117617D01*
X657095Y1120157D01*
X659634Y1117617D01*
Y1110000D01*
X664713D02*
Y1120157D01*
X667252D01*
X669791Y1117617D01*
Y1110000D01*
Y1117617D01*
X672330Y1120157D01*
X674870Y1117617D01*
Y1110000D01*
X578381Y1153176D02*
X580920Y1155715D01*
X585998D01*
X588538Y1153176D01*
Y1143019D01*
X585998Y1140480D01*
X580920D01*
X578381Y1143019D01*
Y1153176D01*
X593616Y1140480D02*
Y1143019D01*
X596155D01*
Y1140480D01*
X593616D01*
X606312Y1153176D02*
X608851Y1155715D01*
X613929D01*
X616469Y1153176D01*
Y1143019D01*
X613929Y1140480D01*
X608851D01*
X606312Y1143019D01*
Y1153176D01*
X621547Y1155715D02*
X631704D01*
Y1153176D01*
X621547Y1143019D01*
Y1140480D01*
X636782Y1153176D02*
X639321Y1155715D01*
X644399D01*
X646939Y1153176D01*
Y1143019D01*
X644399Y1140480D01*
X639321D01*
X636782Y1143019D01*
Y1153176D01*
X652017Y1140480D02*
Y1150637D01*
X654556D01*
X657095Y1148098D01*
Y1140480D01*
Y1148098D01*
X659634Y1150637D01*
X662174Y1148098D01*
Y1140480D01*
X667252D02*
Y1150637D01*
X669791D01*
X672330Y1148098D01*
Y1140480D01*
Y1148098D01*
X674870Y1150637D01*
X677409Y1148098D01*
Y1140480D01*
X578381Y1183656D02*
X580920Y1186195D01*
X585998D01*
X588538Y1183656D01*
Y1173499D01*
X585998Y1170960D01*
X580920D01*
X578381Y1173499D01*
Y1183656D01*
X593616Y1170960D02*
Y1173499D01*
X596155D01*
Y1170960D01*
X593616D01*
X606312Y1183656D02*
X608851Y1186195D01*
X613929D01*
X616469Y1183656D01*
Y1173499D01*
X613929Y1170960D01*
X608851D01*
X606312Y1173499D01*
Y1183656D01*
X621547Y1186195D02*
X631704D01*
Y1183656D01*
X621547Y1173499D01*
Y1170960D01*
X636782Y1183656D02*
X639321Y1186195D01*
X644399D01*
X646939Y1183656D01*
Y1173499D01*
X644399Y1170960D01*
X639321D01*
X636782Y1173499D01*
Y1183656D01*
X652017Y1170960D02*
Y1181117D01*
X654556D01*
X657095Y1178577D01*
Y1170960D01*
Y1178577D01*
X659634Y1181117D01*
X662174Y1178577D01*
Y1170960D01*
X667252D02*
Y1181117D01*
X669791D01*
X672330Y1178577D01*
Y1170960D01*
Y1178577D01*
X674870Y1181117D01*
X677409Y1178577D01*
Y1170960D01*
X578381Y1214136D02*
X580920Y1216675D01*
X585998D01*
X588538Y1214136D01*
Y1203979D01*
X585998Y1201440D01*
X580920D01*
X578381Y1203979D01*
Y1214136D01*
X593616Y1201440D02*
Y1203979D01*
X596155D01*
Y1201440D01*
X593616D01*
X606312Y1214136D02*
X608851Y1216675D01*
X613929D01*
X616469Y1214136D01*
Y1203979D01*
X613929Y1201440D01*
X608851D01*
X606312Y1203979D01*
Y1214136D01*
X621547Y1201440D02*
X626625D01*
X624086D01*
Y1216675D01*
X621547Y1214136D01*
X634243D02*
X636782Y1216675D01*
X641860D01*
X644399Y1214136D01*
Y1211597D01*
X641860Y1209057D01*
X644399Y1206518D01*
Y1203979D01*
X641860Y1201440D01*
X636782D01*
X634243Y1203979D01*
Y1206518D01*
X636782Y1209057D01*
X634243Y1211597D01*
Y1214136D01*
X636782Y1209057D02*
X641860D01*
X649478Y1201440D02*
Y1211597D01*
X652017D01*
X654556Y1209057D01*
Y1201440D01*
Y1209057D01*
X657095Y1211597D01*
X659634Y1209057D01*
Y1201440D01*
X664713D02*
Y1211597D01*
X667252D01*
X669791Y1209057D01*
Y1201440D01*
Y1209057D01*
X672330Y1211597D01*
X674870Y1209057D01*
Y1201440D01*
X578381Y1244616D02*
X580920Y1247155D01*
X585998D01*
X588538Y1244616D01*
Y1234459D01*
X585998Y1231920D01*
X580920D01*
X578381Y1234459D01*
Y1244616D01*
X593616Y1231920D02*
Y1234459D01*
X596155D01*
Y1231920D01*
X593616D01*
X606312Y1244616D02*
X608851Y1247155D01*
X613929D01*
X616469Y1244616D01*
Y1234459D01*
X613929Y1231920D01*
X608851D01*
X606312Y1234459D01*
Y1244616D01*
X621547Y1231920D02*
X626625D01*
X624086D01*
Y1247155D01*
X621547Y1244616D01*
X634243D02*
X636782Y1247155D01*
X641860D01*
X644399Y1244616D01*
Y1234459D01*
X641860Y1231920D01*
X636782D01*
X634243Y1234459D01*
Y1244616D01*
X649478Y1231920D02*
Y1242077D01*
X652017D01*
X654556Y1239538D01*
Y1231920D01*
Y1239538D01*
X657095Y1242077D01*
X659634Y1239538D01*
Y1231920D01*
X664713D02*
Y1242077D01*
X667252D01*
X669791Y1239538D01*
Y1231920D01*
Y1239538D01*
X672330Y1242077D01*
X674870Y1239538D01*
Y1231920D01*
X753596Y1305576D02*
X751057Y1308115D01*
X745978D01*
X743439Y1305576D01*
Y1295419D01*
X745978Y1292880D01*
X751057D01*
X753596Y1295419D01*
X761213Y1292880D02*
X766292D01*
X768831Y1295419D01*
Y1300497D01*
X766292Y1303037D01*
X761213D01*
X758674Y1300497D01*
Y1295419D01*
X761213Y1292880D01*
X773909D02*
Y1303037D01*
X781527D01*
X784066Y1300497D01*
Y1292880D01*
X789144D02*
X796762D01*
X799301Y1295419D01*
X796762Y1297958D01*
X791683D01*
X789144Y1300497D01*
X791683Y1303037D01*
X799301D01*
X806918Y1305576D02*
Y1303037D01*
X804379D01*
X809458D01*
X806918D01*
Y1295419D01*
X809458Y1292880D01*
X819614Y1303037D02*
X824693D01*
X827232Y1300497D01*
Y1292880D01*
X819614D01*
X817075Y1295419D01*
X819614Y1297958D01*
X827232D01*
X832310Y1292880D02*
Y1303037D01*
X839928D01*
X842467Y1300497D01*
Y1292880D01*
X850085Y1305576D02*
Y1303037D01*
X847545D01*
X852624D01*
X850085D01*
Y1295419D01*
X852624Y1292880D01*
X743439Y939816D02*
X745978Y942355D01*
X751057D01*
X753596Y939816D01*
Y937277D01*
X751057Y934737D01*
X748517D01*
X751057D01*
X753596Y932198D01*
Y929659D01*
X751057Y927120D01*
X745978D01*
X743439Y929659D01*
X758674Y927120D02*
Y929659D01*
X761213D01*
Y927120D01*
X758674D01*
X781527Y942355D02*
X771370D01*
Y934737D01*
X776448Y937277D01*
X778987D01*
X781527Y934737D01*
Y929659D01*
X778987Y927120D01*
X773909D01*
X771370Y929659D01*
X751057Y988080D02*
Y1003315D01*
X743439Y995697D01*
X753596D01*
X758674Y988080D02*
Y990619D01*
X761213D01*
Y988080D01*
X758674D01*
X781527Y1003315D02*
X776448Y1000776D01*
X771370Y995697D01*
Y990619D01*
X773909Y988080D01*
X778987D01*
X781527Y990619D01*
Y993158D01*
X778987Y995697D01*
X771370D01*
X751057Y1018560D02*
Y1033795D01*
X743439Y1026178D01*
X753596D01*
X758674Y1018560D02*
Y1021099D01*
X761213D01*
Y1018560D01*
X758674D01*
X781527Y1033795D02*
X776448Y1031256D01*
X771370Y1026178D01*
Y1021099D01*
X773909Y1018560D01*
X778987D01*
X781527Y1021099D01*
Y1023638D01*
X778987Y1026178D01*
X771370D01*
X751057Y1079520D02*
Y1094755D01*
X743439Y1087138D01*
X753596D01*
X758674Y1079520D02*
Y1082059D01*
X761213D01*
Y1079520D01*
X758674D01*
X781527D02*
X771370D01*
X781527Y1089677D01*
Y1092216D01*
X778987Y1094755D01*
X773909D01*
X771370Y1092216D01*
X751057Y1140480D02*
Y1155715D01*
X743439Y1148098D01*
X753596D01*
X758674Y1140480D02*
Y1143019D01*
X761213D01*
Y1140480D01*
X758674D01*
X781527Y1155715D02*
X776448Y1153176D01*
X771370Y1148098D01*
Y1143019D01*
X773909Y1140480D01*
X778987D01*
X781527Y1143019D01*
Y1145558D01*
X778987Y1148098D01*
X771370D01*
X751057Y1170960D02*
Y1186195D01*
X743439Y1178577D01*
X753596D01*
X758674Y1170960D02*
Y1173499D01*
X761213D01*
Y1170960D01*
X758674D01*
X781527Y1186195D02*
X776448Y1183656D01*
X771370Y1178577D01*
Y1173499D01*
X773909Y1170960D01*
X778987D01*
X781527Y1173499D01*
Y1176038D01*
X778987Y1178577D01*
X771370D01*
X743439Y1244616D02*
X745978Y1247155D01*
X751057D01*
X753596Y1244616D01*
Y1242077D01*
X751057Y1239538D01*
X748517D01*
X751057D01*
X753596Y1236998D01*
Y1234459D01*
X751057Y1231920D01*
X745978D01*
X743439Y1234459D01*
X758674Y1231920D02*
Y1234459D01*
X761213D01*
Y1231920D01*
X758674D01*
X781527Y1247155D02*
X771370D01*
Y1239538D01*
X776448Y1242077D01*
X778987D01*
X781527Y1239538D01*
Y1234459D01*
X778987Y1231920D01*
X773909D01*
X771370Y1234459D01*
X888184Y1308115D02*
Y1292880D01*
X895801D01*
X898340Y1295419D01*
Y1297958D01*
X895801Y1300497D01*
X888184D01*
X895801D01*
X898340Y1303037D01*
Y1305576D01*
X895801Y1308115D01*
X888184D01*
X905958Y1292880D02*
X911036D01*
X913575Y1295419D01*
Y1300497D01*
X911036Y1303037D01*
X905958D01*
X903419Y1300497D01*
Y1295419D01*
X905958Y1292880D01*
X921193Y1303037D02*
X926271D01*
X928811Y1300497D01*
Y1292880D01*
X921193D01*
X918654Y1295419D01*
X921193Y1297958D01*
X928811D01*
X933889Y1303037D02*
Y1292880D01*
Y1297958D01*
X936428Y1300497D01*
X938967Y1303037D01*
X941506D01*
X959281Y1308115D02*
Y1292880D01*
X951663D01*
X949124Y1295419D01*
Y1300497D01*
X951663Y1303037D01*
X959281D01*
X979594Y1308115D02*
Y1292880D01*
X989751D01*
X997368Y1303037D02*
X1002447D01*
X1004986Y1300497D01*
Y1292880D01*
X997368D01*
X994829Y1295419D01*
X997368Y1297958D01*
X1004986D01*
X1010064Y1303037D02*
Y1295419D01*
X1012603Y1292880D01*
X1020221D01*
Y1290341D01*
X1017682Y1287802D01*
X1015143D01*
X1020221Y1292880D02*
Y1303037D01*
X1032917Y1292880D02*
X1027839D01*
X1025299Y1295419D01*
Y1300497D01*
X1027839Y1303037D01*
X1032917D01*
X1035456Y1300497D01*
Y1297958D01*
X1025299D01*
X1040534Y1303037D02*
Y1292880D01*
Y1297958D01*
X1043074Y1300497D01*
X1045613Y1303037D01*
X1048152D01*
X1081161Y1305576D02*
X1078622Y1308115D01*
X1073544D01*
X1071004Y1305576D01*
Y1303037D01*
X1073544Y1300497D01*
X1078622D01*
X1081161Y1297958D01*
Y1295419D01*
X1078622Y1292880D01*
X1073544D01*
X1071004Y1295419D01*
X1088779Y1305576D02*
Y1303037D01*
X1086240D01*
X1091318D01*
X1088779D01*
Y1295419D01*
X1091318Y1292880D01*
X1101475Y1303037D02*
X1106553D01*
X1109092Y1300497D01*
Y1292880D01*
X1101475D01*
X1098935Y1295419D01*
X1101475Y1297958D01*
X1109092D01*
X1124327Y1303037D02*
X1116710D01*
X1114171Y1300497D01*
Y1295419D01*
X1116710Y1292880D01*
X1124327D01*
X1129406D02*
Y1308115D01*
Y1297958D02*
X1137023Y1303037D01*
X1129406Y1297958D02*
X1137023Y1292880D01*
D124*
X4487Y1285260D02*
X1157343D01*
X4487Y1315740D02*
X1157343D01*
X4487Y889020D02*
Y1315740D01*
Y889020D02*
X108605D01*
X4487Y919500D02*
X108605D01*
X4487Y949980D02*
X108605D01*
X4487Y980460D02*
X108605D01*
X4487Y1010940D02*
X108605D01*
X4487Y1041420D02*
X108605D01*
X4487Y1071900D02*
X108605D01*
X4487Y1102380D02*
X108605D01*
X4487Y1132860D02*
X108605D01*
X4487Y1163340D02*
X108605D01*
X4487Y1193820D02*
X108605D01*
X4487Y1224300D02*
X108605D01*
X4487Y1254780D02*
X108605D01*
Y889020D02*
Y1315740D01*
Y889020D02*
X344760D01*
X108605Y919500D02*
X344760D01*
X108605Y949980D02*
X344760D01*
X108605Y980460D02*
X344760D01*
X108605Y1010940D02*
X344760D01*
X108605Y1041420D02*
X344760D01*
X108605Y1071900D02*
X344760D01*
X108605Y1102380D02*
X344760D01*
X108605Y1132860D02*
X344760D01*
X108605Y1163340D02*
X344760D01*
X108605Y1193820D02*
X344760D01*
X108605Y1224300D02*
X344760D01*
X108605Y1254780D02*
X344760D01*
Y889020D02*
Y1315740D01*
Y889020D02*
X563141D01*
X344760Y919500D02*
X563141D01*
X344760Y949980D02*
X563141D01*
X344760Y980460D02*
X563141D01*
X344760Y1010940D02*
X563141D01*
X344760Y1041420D02*
X563141D01*
X344760Y1071900D02*
X563141D01*
X344760Y1102380D02*
X563141D01*
X344760Y1132860D02*
X563141D01*
X344760Y1163340D02*
X563141D01*
X344760Y1193820D02*
X563141D01*
X344760Y1224300D02*
X563141D01*
X344760Y1254780D02*
X563141D01*
Y889020D02*
Y1315740D01*
Y889020D02*
X728199D01*
X563141Y919500D02*
X728199D01*
X563141Y949980D02*
X728199D01*
X563141Y980460D02*
X728199D01*
X563141Y1010940D02*
X728199D01*
X563141Y1041420D02*
X728199D01*
X563141Y1071900D02*
X728199D01*
X563141Y1102380D02*
X728199D01*
X563141Y1132860D02*
X728199D01*
X563141Y1163340D02*
X728199D01*
X563141Y1193820D02*
X728199D01*
X563141Y1224300D02*
X728199D01*
X563141Y1254780D02*
X728199D01*
Y889020D02*
Y1315740D01*
Y889020D02*
X872944D01*
X728199Y919500D02*
X872944D01*
X728199Y949980D02*
X872944D01*
X728199Y980460D02*
X872944D01*
X728199Y1010940D02*
X872944D01*
X728199Y1041420D02*
X872944D01*
X728199Y1071900D02*
X872944D01*
X728199Y1102380D02*
X872944D01*
X728199Y1132860D02*
X872944D01*
X728199Y1163340D02*
X872944D01*
X728199Y1193820D02*
X872944D01*
X728199Y1224300D02*
X872944D01*
X728199Y1254780D02*
X872944D01*
Y889020D02*
Y1315740D01*
Y889020D02*
X1157343D01*
X872944Y919500D02*
X1157343D01*
X872944Y949980D02*
X1157343D01*
X872944Y980460D02*
X1157343D01*
X872944Y1010940D02*
X1157343D01*
X872944Y1041420D02*
X1157343D01*
X872944Y1071900D02*
X1157343D01*
X872944Y1102380D02*
X1157343D01*
X872944Y1132860D02*
X1157343D01*
X872944Y1163340D02*
X1157343D01*
X872944Y1193820D02*
X1157343D01*
X872944Y1224300D02*
X1157343D01*
X872944Y1254780D02*
X1157343D01*
Y889020D02*
Y1315740D01*
D125*
X1142103Y889020D02*
X1157343Y904260D01*
X1126863Y889020D02*
X1157343Y919500D01*
X1111623Y889020D02*
X1142103Y919500D01*
X1096383Y889020D02*
X1126863Y919500D01*
X1081143Y889020D02*
X1111623Y919500D01*
X1065903Y889020D02*
X1096383Y919500D01*
X1050663Y889020D02*
X1081143Y919500D01*
X1035423Y889020D02*
X1065903Y919500D01*
X1020183Y889020D02*
X1050663Y919500D01*
X1004943Y889020D02*
X1035423Y919500D01*
X989703Y889020D02*
X1020183Y919500D01*
X974463Y889020D02*
X1004943Y919500D01*
X959223Y889020D02*
X989703Y919500D01*
X943983Y889020D02*
X974463Y919500D01*
X928743Y889020D02*
X959223Y919500D01*
X913503Y889020D02*
X943983Y919500D01*
X898263Y889020D02*
X928743Y919500D01*
X883023Y889020D02*
X913503Y919500D01*
X872944Y894181D02*
X898263Y919500D01*
X872944Y909420D02*
X883023Y919500D01*
X1142103D02*
X1157343Y934740D01*
X1126863Y919500D02*
X1157343Y949980D01*
X1111623Y919500D02*
X1142103Y949980D01*
X1096383Y919500D02*
X1126863Y949980D01*
X1081143Y919500D02*
X1111623Y949980D01*
X1065903Y919500D02*
X1096383Y949980D01*
X1050663Y919500D02*
X1081143Y949980D01*
X1035423Y919500D02*
X1065903Y949980D01*
X1020183Y919500D02*
X1050663Y949980D01*
X1004943Y919500D02*
X1035423Y949980D01*
X989703Y919500D02*
X1020183Y949980D01*
X974463Y919500D02*
X1004943Y949980D01*
X959223Y919500D02*
X989703Y949980D01*
X943983Y919500D02*
X974463Y949980D01*
X928743Y919500D02*
X959223Y949980D01*
X913503Y919500D02*
X943983Y949980D01*
X898263Y919500D02*
X928743Y949980D01*
X883023Y919500D02*
X913503Y949980D01*
X872944Y924660D02*
X898263Y949980D01*
X872944Y939901D02*
X883023Y949980D01*
X1142103D02*
X1157343Y965220D01*
X1126863Y949980D02*
X1157343Y980460D01*
X1111623Y949980D02*
X1142103Y980460D01*
X1096383Y949980D02*
X1126863Y980460D01*
X1081143Y949980D02*
X1111623Y980460D01*
X1065903Y949980D02*
X1096383Y980460D01*
X1050663Y949980D02*
X1081143Y980460D01*
X1035423Y949980D02*
X1065903Y980460D01*
X1020183Y949980D02*
X1050663Y980460D01*
X1004943Y949980D02*
X1035423Y980460D01*
X989703Y949980D02*
X1020183Y980460D01*
X974463Y949980D02*
X1004943Y980460D01*
X959223Y949980D02*
X989703Y980460D01*
X943983Y949980D02*
X974463Y980460D01*
X928743Y949980D02*
X959223Y980460D01*
X913503Y949980D02*
X943983Y980460D01*
X898263Y949980D02*
X928743Y980460D01*
X883023Y949980D02*
X913503Y980460D01*
X872944Y955141D02*
X898263Y980460D01*
X872944Y970380D02*
X883023Y980460D01*
X1142103D02*
X1157343Y995700D01*
X1126863Y980460D02*
X1157343Y1010940D01*
X1111623Y980460D02*
X1142103Y1010940D01*
X1096383Y980460D02*
X1126863Y1010940D01*
X1081143Y980460D02*
X1111623Y1010940D01*
X1065903Y980460D02*
X1096383Y1010940D01*
X1050663Y980460D02*
X1081143Y1010940D01*
X1035423Y980460D02*
X1065903Y1010940D01*
X1020183Y980460D02*
X1050663Y1010940D01*
X1004943Y980460D02*
X1035423Y1010940D01*
X989703Y980460D02*
X1020183Y1010940D01*
X974463Y980460D02*
X1004943Y1010940D01*
X959223Y980460D02*
X989703Y1010940D01*
X943983Y980460D02*
X974463Y1010940D01*
X928743Y980460D02*
X959223Y1010940D01*
X913503Y980460D02*
X943983Y1010940D01*
X898263Y980460D02*
X928743Y1010940D01*
X883023Y980460D02*
X913503Y1010940D01*
X872944Y985620D02*
X898263Y1010940D01*
X872944Y1000861D02*
X883023Y1010940D01*
X1142103D02*
X1157343Y1026180D01*
X1126863Y1010940D02*
X1157343Y1041420D01*
X1111623Y1010940D02*
X1142103Y1041420D01*
X1096383Y1010940D02*
X1126863Y1041420D01*
X1081143Y1010940D02*
X1111623Y1041420D01*
X1065903Y1010940D02*
X1096383Y1041420D01*
X1050663Y1010940D02*
X1081143Y1041420D01*
X1035423Y1010940D02*
X1065903Y1041420D01*
X1020183Y1010940D02*
X1050663Y1041420D01*
X1004943Y1010940D02*
X1035423Y1041420D01*
X989703Y1010940D02*
X1020183Y1041420D01*
X974463Y1010940D02*
X1004943Y1041420D01*
X959223Y1010940D02*
X989703Y1041420D01*
X943983Y1010940D02*
X974463Y1041420D01*
X928743Y1010940D02*
X959223Y1041420D01*
X913503Y1010940D02*
X943983Y1041420D01*
X898263Y1010940D02*
X928743Y1041420D01*
X883023Y1010940D02*
X913503Y1041420D01*
X872944Y1016100D02*
X898263Y1041420D01*
X872944Y1031340D02*
X883023Y1041420D01*
X1142103D02*
X1157343Y1056660D01*
X1126863Y1041420D02*
X1157343Y1071900D01*
X1111623Y1041420D02*
X1142103Y1071900D01*
X1096383Y1041420D02*
X1126863Y1071900D01*
X1081143Y1041420D02*
X1111623Y1071900D01*
X1065903Y1041420D02*
X1096383Y1071900D01*
X1050663Y1041420D02*
X1081143Y1071900D01*
X1035423Y1041420D02*
X1065903Y1071900D01*
X1020183Y1041420D02*
X1050663Y1071900D01*
X1004943Y1041420D02*
X1035423Y1071900D01*
X989703Y1041420D02*
X1020183Y1071900D01*
X974463Y1041420D02*
X1004943Y1071900D01*
X959223Y1041420D02*
X989703Y1071900D01*
X943983Y1041420D02*
X974463Y1071900D01*
X928743Y1041420D02*
X959223Y1071900D01*
X913503Y1041420D02*
X943983Y1071900D01*
X898263Y1041420D02*
X928743Y1071900D01*
X883023Y1041420D02*
X913503Y1071900D01*
X872944Y1046581D02*
X898263Y1071900D01*
X872944Y1061821D02*
X883023Y1071900D01*
X1142103D02*
X1157343Y1087140D01*
X1126863Y1071900D02*
X1157343Y1102380D01*
X1111623Y1071900D02*
X1142103Y1102380D01*
X1096383Y1071900D02*
X1126863Y1102380D01*
X1081143Y1071900D02*
X1111623Y1102380D01*
X1065903Y1071900D02*
X1096383Y1102380D01*
X1050663Y1071900D02*
X1081143Y1102380D01*
X1035423Y1071900D02*
X1065903Y1102380D01*
X1020183Y1071900D02*
X1050663Y1102380D01*
X1004943Y1071900D02*
X1035423Y1102380D01*
X989703Y1071900D02*
X1020183Y1102380D01*
X974463Y1071900D02*
X1004943Y1102380D01*
X959223Y1071900D02*
X989703Y1102380D01*
X943983Y1071900D02*
X974463Y1102380D01*
X928743Y1071900D02*
X959223Y1102380D01*
X913503Y1071900D02*
X943983Y1102380D01*
X898263Y1071900D02*
X928743Y1102380D01*
X883023Y1071900D02*
X913503Y1102380D01*
X872944Y1077060D02*
X898263Y1102380D01*
X872944Y1092300D02*
X883023Y1102380D01*
X1142103D02*
X1157343Y1117620D01*
X1126863Y1102380D02*
X1157343Y1132860D01*
X1111623Y1102380D02*
X1142103Y1132860D01*
X1096383Y1102380D02*
X1126863Y1132860D01*
X1081143Y1102380D02*
X1111623Y1132860D01*
X1065903Y1102380D02*
X1096383Y1132860D01*
X1050663Y1102380D02*
X1081143Y1132860D01*
X1035423Y1102380D02*
X1065903Y1132860D01*
X1020183Y1102380D02*
X1050663Y1132860D01*
X1004943Y1102380D02*
X1035423Y1132860D01*
X989703Y1102380D02*
X1020183Y1132860D01*
X974463Y1102380D02*
X1004943Y1132860D01*
X959223Y1102380D02*
X989703Y1132860D01*
X943983Y1102380D02*
X974463Y1132860D01*
X928743Y1102380D02*
X959223Y1132860D01*
X913503Y1102380D02*
X943983Y1132860D01*
X898263Y1102380D02*
X928743Y1132860D01*
X883023Y1102380D02*
X913503Y1132860D01*
X872944Y1107541D02*
X898263Y1132860D01*
X872944Y1122781D02*
X883023Y1132860D01*
X1142103D02*
X1157343Y1148100D01*
X1126863Y1132860D02*
X1157343Y1163340D01*
X1111623Y1132860D02*
X1142103Y1163340D01*
X1096383Y1132860D02*
X1126863Y1163340D01*
X1081143Y1132860D02*
X1111623Y1163340D01*
X1065903Y1132860D02*
X1096383Y1163340D01*
X1050663Y1132860D02*
X1081143Y1163340D01*
X1035423Y1132860D02*
X1065903Y1163340D01*
X1020183Y1132860D02*
X1050663Y1163340D01*
X1004943Y1132860D02*
X1035423Y1163340D01*
X989703Y1132860D02*
X1020183Y1163340D01*
X974463Y1132860D02*
X1004943Y1163340D01*
X959223Y1132860D02*
X989703Y1163340D01*
X943983Y1132860D02*
X974463Y1163340D01*
X928743Y1132860D02*
X959223Y1163340D01*
X913503Y1132860D02*
X943983Y1163340D01*
X898263Y1132860D02*
X928743Y1163340D01*
X883023Y1132860D02*
X913503Y1163340D01*
X872944Y1138020D02*
X898263Y1163340D01*
X872944Y1153260D02*
X883023Y1163340D01*
X1142103D02*
X1157343Y1178580D01*
X1126863Y1163340D02*
X1157343Y1193820D01*
X1111623Y1163340D02*
X1142103Y1193820D01*
X1096383Y1163340D02*
X1126863Y1193820D01*
X1081143Y1163340D02*
X1111623Y1193820D01*
X1065903Y1163340D02*
X1096383Y1193820D01*
X1050663Y1163340D02*
X1081143Y1193820D01*
X1035423Y1163340D02*
X1065903Y1193820D01*
X1020183Y1163340D02*
X1050663Y1193820D01*
X1004943Y1163340D02*
X1035423Y1193820D01*
X989703Y1163340D02*
X1020183Y1193820D01*
X974463Y1163340D02*
X1004943Y1193820D01*
X959223Y1163340D02*
X989703Y1193820D01*
X943983Y1163340D02*
X974463Y1193820D01*
X928743Y1163340D02*
X959223Y1193820D01*
X913503Y1163340D02*
X943983Y1193820D01*
X898263Y1163340D02*
X928743Y1193820D01*
X883023Y1163340D02*
X913503Y1193820D01*
X872944Y1168501D02*
X898263Y1193820D01*
X872944Y1183740D02*
X883023Y1193820D01*
X1142103D02*
X1157343Y1209060D01*
X1126863Y1193820D02*
X1157343Y1224300D01*
X1111623Y1193820D02*
X1142103Y1224300D01*
X1096383Y1193820D02*
X1126863Y1224300D01*
X1081143Y1193820D02*
X1111623Y1224300D01*
X1065903Y1193820D02*
X1096383Y1224300D01*
X1050663Y1193820D02*
X1081143Y1224300D01*
X1035423Y1193820D02*
X1065903Y1224300D01*
X1020183Y1193820D02*
X1050663Y1224300D01*
X1004943Y1193820D02*
X1035423Y1224300D01*
X989703Y1193820D02*
X1020183Y1224300D01*
X974463Y1193820D02*
X1004943Y1224300D01*
X959223Y1193820D02*
X989703Y1224300D01*
X943983Y1193820D02*
X974463Y1224300D01*
X928743Y1193820D02*
X959223Y1224300D01*
X913503Y1193820D02*
X943983Y1224300D01*
X898263Y1193820D02*
X928743Y1224300D01*
X883023Y1193820D02*
X913503Y1224300D01*
X872944Y1198980D02*
X898263Y1224300D01*
X872944Y1214221D02*
X883023Y1224300D01*
X1142103D02*
X1157343Y1239540D01*
X1126863Y1224300D02*
X1157343Y1254780D01*
X1111623Y1224300D02*
X1142103Y1254780D01*
X1096383Y1224300D02*
X1126863Y1254780D01*
X1081143Y1224300D02*
X1111623Y1254780D01*
X1065903Y1224300D02*
X1096383Y1254780D01*
X1050663Y1224300D02*
X1081143Y1254780D01*
X1035423Y1224300D02*
X1065903Y1254780D01*
X1020183Y1224300D02*
X1050663Y1254780D01*
X1004943Y1224300D02*
X1035423Y1254780D01*
X989703Y1224300D02*
X1020183Y1254780D01*
X974463Y1224300D02*
X1004943Y1254780D01*
X959223Y1224300D02*
X989703Y1254780D01*
X943983Y1224300D02*
X974463Y1254780D01*
X928743Y1224300D02*
X959223Y1254780D01*
X913503Y1224300D02*
X943983Y1254780D01*
X898263Y1224300D02*
X928743Y1254780D01*
X883023Y1224300D02*
X913503Y1254780D01*
X872944Y1229461D02*
X898263Y1254780D01*
X872944Y1244700D02*
X883023Y1254780D01*
X1142103D02*
X1157343Y1270020D01*
X1126863Y1254780D02*
X1157343Y1285260D01*
X1111623Y1254780D02*
X1142103Y1285260D01*
X1096383Y1254780D02*
X1126863Y1285260D01*
X1081143Y1254780D02*
X1111623Y1285260D01*
X1065903Y1254780D02*
X1096383Y1285260D01*
X1050663Y1254780D02*
X1081143Y1285260D01*
X1035423Y1254780D02*
X1065903Y1285260D01*
X1020183Y1254780D02*
X1050663Y1285260D01*
X1004943Y1254780D02*
X1035423Y1285260D01*
X989703Y1254780D02*
X1020183Y1285260D01*
X974463Y1254780D02*
X1004943Y1285260D01*
X959223Y1254780D02*
X989703Y1285260D01*
X943983Y1254780D02*
X974463Y1285260D01*
X928743Y1254780D02*
X959223Y1285260D01*
X913503Y1254780D02*
X943983Y1285260D01*
X898263Y1254780D02*
X928743Y1285260D01*
X883023Y1254780D02*
X913503Y1285260D01*
X872944Y1259940D02*
X898263Y1285260D01*
X872944Y1275181D02*
X883023Y1285260D01*
M02*
