M48
;Layer_Color=9474304
;FILE_FORMAT=4:4
METRIC,LZ
;TYPE=PLATED
T1F00S00C0.2000
T2F00S00C1.0000
T3F00S00C3.2000
;TYPE=NON_PLATED
T4F00S00C0.5000
T5F00S00C1.0000
%
T01
X01102725Y00106
Y00113913
Y00121826
Y00129739
Y00137652
Y00145565
Y00153478
Y00161391
Y00169304
Y00177217
Y0018513
Y00193043
Y00200956
Y00208869
Y00216782
Y00224696
Y00232609
Y00240522
Y00248435
Y00256348
Y00264261
Y00272174
Y00280087
Y00288
X01112929Y002925
Y002825
Y002725
Y002625
Y002525
Y002425
Y002325
Y002225
Y002125
Y002025
Y001925
Y001825
Y001725
X01114Y001605
X011325Y0015
X01132929Y001725
Y001825
Y001925
Y002025
Y002125
Y002225
Y002325
Y002425
Y002525
Y002625
Y002725
Y002825
Y002925
X01142929Y002875
Y002775
Y002675
Y002575
Y002475
Y002375
Y002275
Y002175
Y002075
Y001975
Y001875
Y001775
Y001675
X01152929Y001725
Y001825
Y001925
Y002025
Y002125
Y002225
Y002325
Y002425
Y002525
Y002625
Y002725
Y002825
Y002925
X01162929Y002875
Y002775
Y002575
Y002475
Y002375
Y002275
Y002175
Y002075
Y001975
Y001875
Y001775
Y001675
Y001575
X01154Y00156
X01172929Y001625
Y001725
Y001825
Y001925
Y002025
Y002125
Y002225
Y002325
Y002425
X01182929Y002475
Y002375
Y002275
Y002175
Y002075
Y001975
Y001875
Y001775
Y001675
Y001575
X01188Y001485
X01192929Y001625
Y001725
Y001825
Y001925
Y002025
Y002125
Y002225
Y002325
Y002425
Y002525
X01202929Y002475
Y002375
Y002275
X012065Y002225
X012015Y002145
X01202929Y001975
Y001875
Y001775
Y001675
X01222929
Y001775
X01233Y00182
X01232929Y002025
X0125425Y00202025
X01252929Y001925
X01259Y00182
X012705Y00188
X01285Y001915
X01294Y002
X012895Y00209
X01271Y00221
X0126475Y00222
X01254Y002145
X01238Y002225
X012225Y002305
X012185Y00238
X01222Y00255
X01232929Y002525
X01261Y00254
X01259468Y002435
X01262929Y002775
X01277Y002755
X012945Y0028575
X01311Y00287
X01322929Y002875
X01332929Y002825
X01328Y00266
X01322929Y002575
X01327Y00218
X01322929Y002075
X01332929Y002025
X01322929Y001875
X01312929Y001825
X013055Y001885
X01299Y001815
X0129925Y0017475
X01302929Y001675
X01322929
X01333Y00158
Y00143
X01332929Y001325
Y001225
X01322929Y001275
Y001375
X01312929Y001325
Y001225
X01307Y00114
X012815Y0011525
Y0012325
X01272929Y001325
X012655Y001355
X01266188Y00143313
X01252929Y001425
X01242929Y001475
X01232929Y001425
X012385Y001355
Y00129
X0124Y00116
X01226Y00110823
X01213Y00113
X01214Y00129
X0121875Y00134
X01222929Y001475
X01228Y001625
X01242929Y001675
X012495Y001625
X0127125Y00158
X012785Y001635
X0129475Y00152
X01302929Y001375
X012615Y00129
X0125975Y001225
X012535Y00109
X0118875
X011695Y00109177
X01172Y00121
X01171Y0013
X0114Y00126
X01143Y00108
X01122929Y001175
X01122Y0013
X01122929Y001975
Y002075
Y002175
Y002275
Y002375
Y002475
Y002575
Y002675
Y002775
Y002875
X011765Y0029
Y002545
X01227318Y00285318
X012025Y00142
X01342929Y001275
X01349Y00165
X01344Y00174375
X00886
X00891Y00165
X00875Y00158
Y00143
X00874929Y001325
Y001225
X00864929Y001275
Y001375
X00854929Y001325
Y001225
X00849Y00114
X008235Y0011525
Y0012325
X00814929Y001325
X008075Y001355
X00808187Y00143313
X00794929Y001425
X00784929Y001475
X00774929Y001425
X007805Y001355
Y00129
X00782Y00116
X00768Y00110823
X00755Y00113
X00756Y00129
X0076075Y00134
X00764929Y001475
Y001675
Y001775
X00775Y00182
X00774929Y002025
X0079625Y00202025
X00794929Y001925
X00801Y00182
X008125Y00188
X00827Y001915
X00836Y002
X008315Y00209
X00813Y00221
X0080675Y00222
X00796Y002145
X0078Y002225
X007645Y002305
X007605Y00238
X00744929Y002375
Y002475
X00734929Y002425
Y002525
X00724929Y002475
Y002375
Y002275
Y002175
Y002075
Y001975
Y001875
Y001775
Y001675
Y001575
X0073Y001485
X00734929Y001625
Y001725
Y001825
Y001925
Y002025
Y002125
Y002225
Y002325
X00744929Y002275
X007485Y002225
X007435Y002145
X00744929Y001975
Y001875
Y001775
Y001675
X007445Y00142
X00713Y0013
X00714Y00121
X007115Y00109177
X0073075Y00109
X007955
X0080175Y001225
X008035Y00129
X0081325Y00158
X008205Y001635
X0083675Y00152
X00844929Y001375
Y001675
X0084125Y0017475
X00841Y001815
X008475Y001885
X00854929Y001825
X00864929Y001875
Y002075
X00869Y00218
X00874929Y002025
X00864929Y001675
X00884929Y001275
X007915Y001625
X00784929Y001675
X0077Y001625
X00714929Y001625
Y001725
Y001825
Y001925
Y002025
Y002125
Y002225
Y002325
Y002425
X00704929Y002475
Y002575
X00694929Y002525
Y002425
Y002325
Y002225
Y002125
Y002025
Y001925
Y001825
Y001725
X00704929Y001775
Y001875
Y001975
Y002075
Y002175
Y002275
Y002375
X007185Y002545
X00694929Y002625
Y002725
Y002825
Y002925
X00704929Y002875
Y002775
X007185Y0029
X00769318Y00285318
X00764Y00255
X00774929Y002525
X00803Y00254
X00801468Y002435
X00804929Y002775
X00819Y002755
X008365Y0028575
X00853Y00287
X00864929Y002875
X00874929Y002825
X0087Y00266
X00864929Y002575
X00704929Y001675
Y001575
X00696Y00156
X00684929Y001675
Y001775
Y001875
Y001975
Y002075
Y002175
Y002275
Y002375
Y002475
Y002575
Y002675
Y002775
Y002875
X00674929Y002825
Y002725
Y002625
Y002525
Y002425
Y002325
Y002225
Y002125
Y002025
Y001925
Y001825
Y001725
X00654929
Y001825
Y001925
Y002025
Y002125
Y002225
Y002325
Y002425
Y002525
Y002625
Y002725
Y002825
Y002925
X00644725Y00288
Y00280087
Y00272174
Y00264261
Y00256348
Y00248435
Y00240522
Y00232609
Y00224696
Y00216782
Y00208869
Y00200956
Y00193043
Y0018513
Y00177217
Y00169304
Y00161391
Y00153478
Y00145565
Y00137652
Y00129739
Y00121826
Y00113913
Y00106
X00664929Y001175
X00664Y0013
X00682Y00126
X00685Y00108
X006745Y0015
X00656Y001605
X00664929Y001975
Y002075
Y002175
Y002275
Y002375
Y002475
Y002575
Y002675
Y002775
Y002875
X00674929Y002925
X00416929Y002825
X00406929Y002875
X00395Y00287
X003785Y0028575
X00361Y002755
X00346929Y002775
X00345Y00254
X00343468Y002435
X0034875Y00222
X00355Y00221
X00338Y002145
X0033825Y00202025
X00336929Y001925
X00343Y00182
X003545Y00188
X00369Y001915
X00378Y002
X003735Y00209
X00406929Y002075
X00411Y00218
X00416929Y002025
X00406929Y001875
X00396929Y001825
X003895Y001885
X00383Y001815
X0038325Y0017475
X00386929Y001675
X00406929
X00417Y00158
Y00143
X00416929Y001325
Y001225
X00406929Y001275
Y001375
X00396929Y001325
Y001225
X00391Y00114
X003655Y0011525
Y0012325
X00356929Y001325
X003495Y001355
X00350187Y00143313
X00336929Y001425
X00326929Y001475
X00316929Y001425
X003225Y001355
Y00129
X00324Y00116
X0031Y00110823
X00297Y00113
X00298Y00129
X0030275Y00134
X00306929Y001475
Y001675
Y001775
X00317Y00182
X00316929Y002025
X00322Y002225
X003065Y002305
X003025Y00238
X00306Y00255
X00316929Y002525
X00311318Y00285318
X00412Y00266
X00406929Y002575
X00428Y00174375
X00433Y00165
X00426929Y001275
X00386929Y001375
X0037875Y00152
X003625Y001635
X0035525Y00158
X003335Y001625
X00326929Y001675
X00312Y001625
X003455Y00129
X0034375Y001225
X003375Y00109
X0027275
X002535Y00109177
X00256Y00121
X00255Y0013
X00256929Y001625
Y001725
Y001825
Y001925
Y002025
Y002125
Y002225
Y002325
Y002425
X00246929Y002475
Y002575
X00236929Y002525
Y002425
Y002325
Y002225
Y002125
Y002025
Y001925
Y001825
Y001725
X00226929Y001775
Y001675
X00216929Y001725
Y001825
Y001925
Y002025
Y002125
Y002225
Y002325
Y002425
Y002525
Y002625
Y002725
Y002825
Y002925
X00226929Y002875
Y002775
Y002675
Y002575
Y002475
Y002375
Y002275
Y002175
Y002075
Y001975
Y001875
X00246929
Y001975
Y002075
Y002175
Y002275
Y002375
X00266929
Y002475
X002605Y002545
X00276929Y002525
Y002425
Y002325
Y002225
Y002125
Y002025
Y001925
Y001825
Y001725
Y001625
X00266929Y001675
Y001575
X00272Y001485
X002865Y00142
X00286929Y001675
Y001775
Y001875
Y001975
X002855Y002145
X002905Y002225
X00286929Y002275
Y002375
Y002475
X00266929Y002275
Y002175
Y002075
Y001975
Y001875
Y001775
X00246929
Y001675
Y001575
X00238Y00156
X002165Y0015
X00198Y001605
X00186725Y00161391
Y00169304
Y00177217
Y0018513
Y00193043
Y00200956
Y00208869
Y00216782
Y00224696
Y00232609
Y00240522
Y00248435
Y00256348
Y00264261
Y00272174
Y00280087
Y00288
X00196929Y002925
Y002825
Y002725
Y002625
Y002525
Y002425
Y002325
Y002225
Y002125
Y002025
Y001925
Y001825
Y001725
X00186725Y00153478
Y00145565
Y00137652
Y00129739
Y00121826
Y00113913
Y00106
X00206929Y001175
X00206Y0013
X00224Y00126
X00227Y00108
X00206929Y001975
Y002075
Y002175
Y002275
Y002375
Y002475
Y002575
Y002675
Y002775
Y002875
X00236929Y002825
Y002925
X00246929Y002875
Y002775
X00236929Y002725
Y002625
X002605Y0029
X00266929Y002975
X00274Y00299
X00266929Y003075
Y003175
Y003275
Y003375
X00276929Y003325
Y003225
Y003125
X00286929Y003175
Y003275
X00292031Y00323565
X00286Y00303
X00256929Y003025
Y003125
Y003225
Y003325
Y003425
Y003525
Y003625
Y003725
Y003825
Y003925
X00259Y00402
X00265
X00271
X002765
X00282Y00401
Y00395
X00287
X002925
X00286929Y003875
X00276929Y003825
X00266929Y003875
Y003775
X00267Y00363
Y00353
X00286929Y003575
X00246929
Y003475
Y003375
Y003275
Y003175
Y003075
Y002975
X00236929Y003025
Y003125
Y003225
Y003325
Y003425
Y003525
Y003625
Y003725
Y003825
Y003925
X00235Y00402
X00241
X00247
X00253
X00247Y00416
X00241
X00236
X0023
X00224
X00219
X00214
X00216929Y004225
Y004325
X00206929Y004375
Y004275
X00196929Y004225
Y004325
Y004425
Y004525
Y004625
Y004725
Y004825
Y004925
Y005025
Y005125
Y005225
Y005325
Y005425
Y005525
Y005625
Y005725
Y005825
Y005925
Y006025
Y00612501
Y00622501
Y00632501
Y00642501
Y00652501
Y00662501
Y00672501
Y00682501
X00186725Y00685196
Y00677282
Y0066937
Y00661457
Y00653543
Y0064563
Y00637717
Y00629804
Y00621891
Y00613978
Y00606065
Y00598152
Y00590239
Y00582326
Y00574413
Y005665
X00206929Y005675
Y005575
Y005475
Y005375
Y005275
Y005175
Y005075
Y004975
Y004875
Y004775
Y004675
Y004575
Y004475
X00226929Y004275
X00236929Y004225
Y004325
X00246929Y004375
Y004475
Y004575
Y004675
Y004775
Y004875
Y004975
Y005075
Y005175
Y005275
Y005375
Y005475
Y005575
Y005675
Y005775
Y005875
Y005975
Y006075
Y006175
Y006275
Y00637501
Y00647501
Y00657501
X00236929Y00652501
Y00662501
Y00672501
X00226929Y00677501
Y00667501
Y00657501
Y00647501
X00216929Y00652501
Y00662501
Y00672501
X00206929Y00677501
Y00667501
Y00657501
Y00647501
Y00637501
Y006275
Y006175
Y006075
Y005975
Y005875
Y005775
X00216929Y005725
Y005825
Y005925
X00226929Y005975
X00236929Y005925
Y006025
Y00622501
X00226929Y006275
X00216929Y00612501
X00256929
Y006025
Y005925
Y005825
Y005725
Y005625
Y005525
Y005425
Y005325
Y005225
Y005125
Y005025
Y004925
Y004825
Y004725
Y004625
Y004525
Y004425
Y004325
X00266929Y004375
Y004475
Y004575
Y004675
Y004775
Y004875
Y004975
Y005075
Y005175
Y005275
Y005375
Y005475
Y005575
Y005675
Y005775
X00265Y00586
X00266929Y005975
X00265Y00606
X00266929Y006175
X00265Y00625
X00256929Y00622501
Y00632501
Y00642501
Y00652501
Y00662501
Y00672501
Y00682501
X00266929Y00687501
Y00677501
Y00667501
X00266Y00655
Y00645
X00289Y00626
X002935Y00677
X00286929Y005675
Y005575
Y005475
Y005375
X00276929Y005325
Y005225
Y005125
Y005025
Y004925
Y004825
Y004725
Y004625
Y004525
Y004425
Y004325
X0027975Y00424
X0027193Y00422
X0027Y00416
X00264
X00266929Y004275
X00246929
Y003875
Y003775
Y003675
X00226929
Y003775
Y003875
X00216929Y003825
Y003725
Y003625
Y003525
Y003425
Y003325
Y003225
Y003125
Y003025
X00206929Y003075
Y002975
X00196929Y003025
Y003125
Y003225
Y003325
Y003425
Y003525
Y003625
Y003725
Y003825
Y003925
X00206929Y003875
Y003775
Y003675
Y003575
Y003475
Y003375
Y003275
Y003175
X00226929
Y003075
Y002975
Y003275
Y003375
Y003475
Y003575
X00216929Y003925
X00217Y00402
X0021193
X00206
X00223
X00229
X00288Y00419
X002935
X00286929Y004275
Y004375
Y004475
Y004575
Y004675
Y004775
Y004875
Y004975
X00276929Y005425
Y005525
Y005625
Y005725
X00226929Y005675
X00216929Y005625
Y005525
Y005425
X00226929Y005375
Y005275
X00236929Y005325
Y005125
X00216929Y005025
Y004925
Y004825
X00296929
Y004925
Y005025
X00306929Y004975
Y004875
Y004775
Y004675
Y004575
Y004475
Y004375
X00316929Y004425
Y004525
Y004625
Y004725
X00321Y00485
X00326929Y004875
X00336929Y004825
X00342Y0049
X003485Y004845
X0036Y00499
X00375Y0049
X003875Y00485
X00394Y00477
X00406929Y004775
Y004675
Y004575
Y004375
X00413Y00424
X00416929Y004125
Y004025
X00407Y00409
X003944Y0041725
X00388Y00415999
X00377Y00424
X00356Y00428
X0036Y00440323
X00367Y00451
X0037025Y00463
X00368Y00477
X0037275Y005105
Y005215
X0038375
Y005105
X00405Y00513
X00416929Y005125
Y005225
Y005325
Y005425
X00426929Y005375
Y005275
Y005175
Y005075
X00406929Y004975
Y004875
Y005275
Y005375
X00406Y00552
X00386929Y005475
X00375Y00543
X0037825Y0055975
X0036825
Y0056975
X0037825
X00376929Y005825
Y005925
Y006025
X00386929Y005975
Y005875
X00366929
Y005975
X00356929Y006025
X00353Y00591
X00356929Y005825
X003532Y0056825
X00356Y00548
X00335Y005445
X00339625Y00519875
X00348Y00519
X00352Y00526
X00316929Y005225
Y005125
X00296929Y005225
Y004725
Y004625
Y004525
Y004425
X00299Y00419
X00316929Y004225
X0032Y004325
X00342Y00423
X00346465Y004055
Y00390285
X0033125
Y00374215
X00346465
Y00359
X00362535
Y00374215
X0037775
Y00390285
X00362535
Y004055
X003945Y003845
X003939Y00375
X003965Y003665
X00406929Y003275
X004015Y00313
X0039975Y00305
X00406929Y003075
Y002975
X00395Y002975
X00371Y00298
X003735Y00318
X00361Y00317
X00352Y00322
X00344Y00327
X003375Y003175
X00331
X003185Y003135
X00311Y00303
X002995Y00308
X002965Y0033
X003085Y003295
X0032Y00344
X00331516Y00335266
X00343149Y00342541
X00358497Y00342557
X0035525Y003355
X00416929Y003125
X00425Y00429
X00426929Y004375
X00388Y00442
X00394Y00533
X0040025Y005725
X00416929Y005725
X00406Y00609
X00406929Y006175
Y006275
X00416929Y00622501
X00406929Y00647501
X00396929Y00652501
X003935Y00638
X00386929Y006275
Y006175
X003735Y00619
X00366929Y006175
X00356929Y00622501
X00352Y00626
X00346929Y00647501
X00337Y00645
X00327Y00647
X00306929Y00647501
X00296929Y00652501
X00316Y006695
Y006805
X00327
Y006695
X00338
Y006805
X00382Y0066
X00406929Y00667501
X00317Y00609
X003345Y00499
X00298Y00394
X00654929Y003925
Y003825
Y003725
Y003625
Y003525
Y003425
Y003325
Y003225
Y003125
Y003025
X00664929Y003075
Y002975
X00674929Y003025
Y003125
Y003225
Y003325
Y003425
Y003525
Y003625
Y003725
Y003825
Y003925
X00675Y00402
X0066993
X00664
X00664929Y003875
Y003775
Y003675
Y003575
Y003475
Y003375
Y003275
Y003175
X00684929
Y003075
Y002975
Y003275
Y003375
Y003475
Y003575
Y003675
Y003775
Y003875
X00687Y00402
X00681
X00682Y00416
X00677
X00672
X00674929Y004225
Y004325
X00664929Y004375
Y004275
X00654929Y004225
Y004325
Y004425
Y004525
Y004625
Y004725
Y004825
Y004925
Y005025
Y005125
Y005225
Y005325
Y005425
Y005525
Y005625
Y005725
Y005825
Y005925
Y006025
Y00612501
Y00622501
Y00632501
Y00642501
Y00652501
Y00662501
Y00672501
Y00682501
X00644725Y00685196
Y00677282
Y0066937
Y00661457
Y00653543
Y0064563
Y00637717
Y00629804
Y00621891
Y00613978
Y00606065
Y00598152
Y00590239
Y00582326
Y00574413
Y005665
X00664929Y005675
Y005575
Y005475
Y005375
Y005275
Y005175
Y005075
Y004975
Y004875
Y004775
Y004675
Y004575
Y004475
X00684929Y004275
X00688Y00416
X00674929Y004825
Y004925
Y005025
X00684929Y005275
Y005375
X00674929Y005425
Y005525
Y005625
Y005725
Y005825
Y005925
X00684929Y005975
X00664929
Y006075
Y006175
Y006275
Y00637501
Y00647501
Y00657501
Y00667501
Y00677501
X00674929Y00672501
Y00662501
Y00652501
X00684929Y00657501
Y00647501
Y00667501
Y00677501
Y006275
X00674929Y00612501
X00664929Y005875
Y005775
X00684929Y005675
X00704929
Y005575
Y005475
Y005375
Y005275
Y005175
Y005075
Y004975
Y004875
Y004775
Y004675
Y004575
Y004475
Y004375
Y004275
X00705Y00416
X00699
X00694
X00694929Y004225
Y004325
X00714929
Y004425
Y004525
Y004625
Y004725
Y004825
Y004925
Y005025
Y005125
Y005225
Y005325
Y005425
Y005525
Y005625
Y005725
Y005825
Y005925
Y006025
Y00612501
Y00622501
Y00632501
Y00642501
Y00652501
Y00662501
Y00672501
Y00682501
X00724929Y00687501
Y00677501
Y00667501
X00724Y00655
Y00645
X00723Y00625
X00724929Y006175
X00723Y00606
X00724929Y005975
X00723Y00586
X00724929Y005775
Y005675
Y005575
Y005475
Y005375
Y005275
Y005175
Y005075
Y004975
Y004875
Y004775
Y004675
Y004575
Y004475
Y004375
Y004275
X0072993Y00422
X00728Y00416
X00722
X00723Y00402
X00717
X00711
X00705
X00699
X00693
X00694929Y003925
Y003825
Y003725
Y003625
Y003525
Y003425
Y003325
Y003225
Y003125
Y003025
X00704929Y003075
Y002975
X00714929Y003025
Y003125
Y003225
Y003325
Y003425
Y003525
Y003625
Y003725
Y003825
Y003925
X00704929Y003875
Y003775
Y003675
Y003575
Y003475
Y003375
Y003275
Y003175
X00724929
Y003075
Y002975
X00732Y00299
X00744Y00303
X00744929Y003175
Y003275
X00750031Y00323565
X007545Y0033
X007665Y003295
X00778Y00344
X00789516Y00335266
X00789Y003175
X007955
X00802Y00327
X0081Y00322
X00819Y00317
X008315Y00318
X00829Y00298
X00853Y002975
X00864929Y002975
Y003075
X0085775Y00305
X008595Y00313
X00874929Y003125
X00864929Y003275
X008545Y003665
X008519Y00375
X008525Y003845
X0083575Y00390285
X00820535
Y004055
X00804465
Y00390285
X0078925
Y00374215
X00804465
Y00359
X00820535
Y00374215
X0083575
X00835Y00424
X00846Y00415999
X008524Y0041725
X00865Y00409
X00874929Y004125
Y004025
X00871Y00424
X00883Y00429
X00884929Y004375
X00864929
Y004575
Y004675
Y004775
Y004875
Y004975
X00863Y00513
X00874929Y005125
Y005225
Y005325
Y005425
X00884929Y005375
Y005275
Y005175
Y005075
X00864929Y005275
Y005375
X00864Y00552
X00844929Y005475
X00833Y00543
X0083625Y0055975
X0082625
Y0056975
X0083625
X00834929Y005825
Y005925
Y006025
X00844929Y005975
Y005875
X00824929
Y005975
X00814929Y006025
X00811Y00591
X00814929Y005825
X008112Y0056825
X00814Y00548
X00793Y005445
X00797625Y00519875
X00806Y00519
X0081Y00526
X0083075Y005215
X0084175
Y005105
X0083075
X00833Y0049
X008455Y00485
X00852Y00477
X00826
X0082825Y00463
X00825Y00451
X00818Y00440323
X00814Y00428
X008Y00423
X00774929Y004225
X00778Y004325
X00774929Y004425
Y004525
Y004625
Y004725
X00764929Y004775
Y004875
Y004975
X00754929Y004925
Y005025
X00744929Y004975
Y004875
Y004775
Y004675
Y004575
Y004475
Y004375
Y004275
X00746Y00419
X007515
X00757
X0073775Y00424
X00734929Y004325
Y004425
Y004525
Y004625
Y004725
Y004825
Y004925
Y005025
Y005125
Y005225
Y005325
Y005425
Y005525
Y005625
Y005725
X00744929Y005675
Y005575
Y005475
Y005375
X00754929Y005225
X00774929
Y005125
X007925Y00499
X008Y0049
X008065Y004845
X00794929Y004825
X00784929Y004875
X00779Y00485
X00754929Y004825
Y004725
Y004625
Y004525
Y004425
X00764929Y004475
Y004575
Y004675
Y004375
X00756Y00394
X007505Y00395
X00745
X0074
Y00401
X007345Y00402
X00729
X00724929Y003875
Y003775
X00725Y00363
Y00353
X00724929Y003375
Y003275
X00734929Y003225
Y003125
Y003325
X00744929Y003575
Y003875
X00734929Y003825
X007575Y00308
X00769Y00303
X007765Y003135
X00801149Y00342541
X00816497Y00342557
X0081325Y003355
X00846Y00442
X00818Y00499
X00852Y00533
X0085825Y005725
X00874929Y005725
X00864Y00609
X00864929Y006175
Y006275
X00874929Y00622501
X00864929Y00647501
X00854929Y00652501
X008515Y00638
X00844929Y006275
Y006175
X008315Y00619
X00824929Y006175
X00814929Y00622501
X0081Y00626
X00804929Y00647501
X00795Y00645
X00785Y00647
X00764929Y00647501
X00754929Y00652501
X007515Y00677
X00774Y006805
Y006695
X00785
Y006805
X00796
Y006695
X0084Y0066
X00864929Y00667501
X00775Y00609
X00747Y00626
X00704929Y006275
Y006175
Y006075
Y005975
Y005875
Y005775
X00694929Y005925
Y006025
Y00622501
X00704929Y00637501
Y00647501
Y00657501
X00694929Y00652501
Y00662501
Y00672501
Y005325
Y005125
X01112929
Y005025
Y004925
Y004825
Y004725
Y004625
Y004525
Y004425
Y004325
Y004225
X01122929Y004275
Y004375
Y004475
Y004575
Y004675
Y004775
Y004875
Y004975
Y005075
Y005175
Y005275
Y005375
Y005475
Y005575
Y005675
Y005775
Y005875
Y005975
Y006075
Y006175
Y006275
Y00637501
Y00647501
Y00657501
Y00667501
Y00677501
X01132929Y00672501
Y00662501
Y00652501
X01142929Y00657501
Y00647501
X01152929Y00652501
Y00662501
Y00672501
X01142929Y00677501
Y00667501
X01162929Y00657501
Y00647501
Y00637501
Y006275
Y006175
Y006075
Y005975
Y005875
Y005775
Y005675
Y005575
Y005475
Y005375
Y005275
Y005175
Y005075
Y004975
Y004875
Y004775
Y004675
Y004575
Y004475
Y004375
Y004275
X01163Y00416
X01157
X01152
X01146
X0114
X01135
X0113
X01132929Y004225
Y004325
X01142929Y004275
X01152929Y004225
Y004325
X01172929
Y004425
Y004525
Y004625
Y004725
Y004825
Y004925
Y005025
Y005125
Y005225
Y005325
Y005425
Y005525
Y005625
Y005725
Y005825
Y005925
Y006025
Y00612501
Y00622501
Y00632501
Y00642501
Y00652501
Y00662501
Y00672501
Y00682501
X01182929Y00687501
Y00677501
Y00667501
X01182Y00655
Y00645
X01181Y00625
X01182929Y006175
X01181Y00606
X01182929Y005975
X01181Y00586
X01182929Y005775
Y005675
Y005575
Y005475
Y005375
Y005275
Y005175
Y005075
Y004975
Y004875
Y004775
Y004675
Y004575
Y004475
Y004375
Y004275
X0118793Y00422
X01186Y00416
X0118
X01181Y00402
X01175
X01169
X01163
X01157
X01151
X01145
X01139
X01133
X0112793
X01122
X01122929Y003875
Y003775
Y003675
Y003575
Y003475
Y003375
Y003275
Y003175
Y003075
Y002975
X01132929Y003025
Y003125
Y003225
Y003325
Y003425
Y003525
Y003625
Y003725
Y003825
Y003925
X01142929Y003875
Y003775
Y003675
Y003575
Y003475
Y003375
Y003275
Y003175
Y003075
Y002975
X01152929Y003025
Y003125
Y003225
Y003325
Y003425
Y003525
Y003625
Y003725
Y003825
Y003925
X01162929Y003875
Y003775
Y003675
Y003575
Y003475
Y003375
Y003275
Y003175
Y003075
Y002975
X01172929Y003025
Y003125
Y003225
Y003325
Y003425
Y003525
Y003625
Y003725
Y003825
Y003925
X01182929Y003875
Y003775
X01183Y00363
Y00353
X01182929Y003375
Y003275
Y003175
Y003075
Y002975
X0119Y00299
X01202Y00303
X01202929Y003175
Y003275
X01208031Y00323565
X012125Y0033
X012245Y003295
X01236Y00344
X01247516Y00335266
X01247Y003175
X012535
X0126Y00327
X01268Y00322
X01277Y00317
X012895Y00318
X01287Y00298
X01311Y002975
X01322929Y002975
Y003075
X0131575Y00305
X013175Y00313
X01332929Y003125
X01322929Y003275
X013125Y003665
X013099Y00375
X013105Y003845
X0129375Y00390285
X01278535
Y004055
X01262465
Y00390285
X0124725
Y00374215
X01262465
Y00359
X01278535
Y00374215
X0129375
X01293Y00424
X01304Y00415999
X013104Y0041725
X01323Y00409
X01332929Y004125
Y004025
X01329Y00424
X01341Y00429
X01342929Y004375
X01322929
Y004575
Y004675
Y004775
Y004875
Y004975
X01321Y00513
X01332929Y005125
Y005225
Y005325
Y005425
X01342929Y005375
Y005275
Y005175
Y005075
X01322929Y005275
Y005375
X01322Y00552
X01302929Y005475
X01291Y00543
X0129425Y0055975
X0128425
Y0056975
X0129425
X01292929Y005825
Y005925
Y006025
X01302929Y005975
Y005875
X01282929
Y005975
X01272929Y006025
X01269Y00591
X01272929Y005825
X01269201Y0056825
X01272Y00548
X01251Y005445
X01255625Y00519875
X01264Y00519
X01268Y00526
X0128875Y005215
X0129975
Y005105
X0128875
X01291Y0049
X013035Y00485
X0131Y00477
X01284
X0128625Y00463
X01283Y00451
X01276Y00440323
X01272Y00428
X01258Y00423
X01232929Y004225
X01236Y004325
X01232929Y004425
Y004525
Y004625
Y004725
X01222929Y004775
Y004875
Y004975
X01212929Y004925
Y005025
X01202929Y004975
Y004875
Y004775
Y004675
Y004575
Y004475
Y004375
Y004275
X01204Y00419
X012095
X01215
X0119575Y00424
X01192929Y004325
Y004425
Y004525
Y004625
Y004725
Y004825
Y004925
Y005025
Y005125
Y005225
Y005325
Y005425
Y005525
Y005625
Y005725
X01202929Y005675
Y005575
Y005475
Y005375
X01212929Y005225
X01232929
Y005125
X012505Y00499
X01258Y0049
X012645Y004845
X01252929Y004825
X01242929Y004875
X01237Y00485
X01212929Y004825
Y004725
Y004625
Y004525
Y004425
X01222929Y004475
Y004575
Y004675
Y004375
X01214Y00394
X012085Y00395
X01203
X01198
Y00401
X011925Y00402
X01187
X01192929Y003825
X01202929Y003875
Y003575
X01192929Y003325
Y003225
Y003125
X012155Y00308
X01227Y00303
X012345Y003135
X01259149Y00342541
X01274497Y00342557
X0127125Y003355
X01304Y00442
X01276Y00499
X0131Y00533
X0131625Y005725
X01332929Y005725
X01322Y00609
X01322929Y006175
Y006275
X01332929Y00622501
X01322929Y00647501
X01312929Y00652501
X013095Y00638
X01302929Y006275
Y006175
X012895Y00619
X01282929Y006175
X01272929Y00622501
X01268Y00626
X01262929Y00647501
X01253Y00645
X01243Y00647
X01222929Y00647501
X01212929Y00652501
X012095Y00677
X01232Y006805
Y006695
X01243
Y006805
X01254
Y006695
X01298Y0066
X01322929Y00667501
X01233Y00609
X01205Y00626
X01152929Y00622501
X01142929Y006275
X01132929Y00612501
Y005925
Y005825
Y005725
Y005625
Y005525
Y005425
X01142929Y005375
Y005275
X01152929Y005325
Y005125
X01132929Y005025
Y004925
Y004825
X01112929Y005225
Y005325
Y005425
Y005525
Y005625
Y005725
Y005825
Y005925
Y006025
Y00612501
Y00622501
Y00632501
Y00642501
Y00652501
Y00662501
Y00672501
Y00682501
X01102725Y00685196
Y00677282
Y0066937
Y00661457
Y00653543
Y0064563
Y00637717
Y00629804
Y00621891
Y00613978
Y00606065
Y00598152
Y00590239
Y00582326
Y00574413
Y005665
X01142929Y005675
Y005975
X01152929Y005925
Y006025
X01112929Y003925
Y003825
Y003725
Y003625
Y003525
Y003425
Y003325
Y003225
Y003125
Y003025
Y00692501
Y00702501
Y00712501
Y00722501
Y00732501
Y00742501
X01102725Y00740587
Y00732674
Y00724761
Y00716848
Y00708935
Y00701022
Y00693109
X01122929Y00717501
X01132929Y00722501
X01142929Y00727501
Y00717501
X01152929Y00712501
Y00692501
X01172929
Y00702501
Y00712501
Y00722501
X01186Y00718
X01182929Y00707501
Y00697501
X011965Y0070125
X01212929Y00702501
X01214Y00717
X012165Y00746
X011925
X01176
X01159Y00744
X01152929Y00742501
X01142929Y00737501
X01132929Y00742501
X01162929Y00737501
X01102725Y007485
X01244Y00748
X01262929Y00747501
X01282929
X01285Y00741
Y00732
X01292929Y00732501
Y00742501
X01302929Y00747501
Y00737501
Y00727501
X01298Y00721
X01305Y00712
X01272929Y00712501
X01266Y00721
X01254Y006915
X01243
X01232
X00847Y00712
X0084Y00721
X00844929Y00727501
Y00737501
Y00747501
X00834929Y00742501
X00827Y00741
X00824929Y00747501
X00827Y00732
X00834929Y00732501
X00808Y00721
X00814929Y00712501
X00796Y006915
X00785
X00774
X00754929Y00702501
X00756Y00717
X00728Y00718
X00724929Y00707501
Y00697501
X00714929Y00692501
Y00702501
Y00712501
Y00722501
X00704929Y00737501
X00701Y00744
X00694929Y00742501
X00718Y00746
X007345
X007585
X00786Y00748
X00804929Y00747501
X007385Y0070125
X00694929Y00692501
Y00712501
X00684929Y00717501
Y00727501
Y00737501
X00674929Y00742501
Y00722501
X00664929Y00717501
X00654929Y00712501
Y00702501
Y00692501
X00644725Y00693109
Y00701022
Y00708935
Y00716848
Y00724761
Y00732674
Y00740587
Y007485
X00654929Y00742501
Y00732501
Y00722501
X00386929Y00727501
Y00737501
Y00747501
X00376929Y00742501
X00369Y00741
X00366929Y00747501
X00369Y00732
X00376929Y00732501
X00382Y00721
X00389Y00712
X00356929Y00712501
X0035Y00721
X00346929Y00747501
X00328Y00748
X003005Y00746
X00298Y00717
X00296929Y00702501
X00316Y006915
X00327
X00338
X002805Y0070125
X00266929Y00697501
Y00707501
X0027Y00718
X00256929Y00722501
Y00712501
Y00702501
Y00692501
X00236929
Y00712501
X00226929Y00717501
Y00727501
Y00737501
X00216929Y00742501
Y00722501
X00206929Y00717501
X00196929Y00712501
Y00702501
Y00692501
X00186725Y00693109
Y00701022
Y00708935
Y00716848
Y00724761
Y00732674
Y00740587
Y007485
X00196929Y00742501
Y00732501
Y00722501
X00236929Y00742501
X00243Y00744
X00246929Y00737501
X0026Y00746
X002765
T02
X013435Y001882
Y002136
Y00239
Y002644
X008855
Y00239
Y002136
Y001882
X004275
Y002136
Y00239
Y002644
Y002984
Y003238
Y003492
Y003746
X00427Y004535
Y004789
X004275Y005589
Y005843
Y006097
Y006351
Y006605
Y006859
X008855
Y006605
Y006351
Y006097
Y005843
Y005589
X00885Y004789
Y004535
X008855Y003746
Y003492
Y003238
Y002984
X013435
Y003238
Y003492
Y003746
X01343Y004535
Y004789
X013435Y005589
Y005843
Y006097
Y006351
Y006605
Y006859
T03
X0145Y0005
X0005
X0075Y005
X0145Y008
X0005
T04
X01299Y001
X01307
X01315Y001
X01017Y0015
X01017Y00158
Y00166
X00857Y001
X00849Y001
X00841
X00559Y0015
X00559Y00158
Y00166
X00399Y001
X00391Y001
X00383
X00101Y0015
X00101Y00158
Y00166
Y00689
X00559
X01017
X01299Y00755
X01307
X01315Y00755
X01017Y00705
X01017Y00697
X00857Y00755
X00849Y00755
X00841
X00559Y00705
X00559Y00697
X00399Y00755
X00391Y00755
X00383
X00101Y00705
X00101Y00697
T05
X011638Y0026834
X0124Y0025818
Y002785
X00782
Y0025818
X007058Y0026834
X00324Y0025818
Y002785
X002478Y0026834
M30
